<svg xmlns="http://www.w3.org/2000/svg" width="35.554" height="24" viewBox="0 0 35.554 24">
  <path id="Icon_zocial-email" data-name="Icon zocial-email" d="M.072,25.942V6.194q0-.034.1-.651L11.8,15.485.209,26.628a2.906,2.906,0,0,1-.137-.686ZM1.615,4.171a1.478,1.478,0,0,1,.583-.1H33.5a1.941,1.941,0,0,1,.617.1L22.46,14.148l-1.543,1.234-3.051,2.5-3.051-2.5-1.543-1.234Zm.034,23.794L13.341,16.754l4.526,3.669,4.526-3.669L34.083,27.965a1.646,1.646,0,0,1-.583.1H2.2a1.553,1.553,0,0,1-.549-.1Zm22.286-12.48L35.523,5.542a2.046,2.046,0,0,1,.1.651V25.942a2.628,2.628,0,0,1-.1.686Z" transform="translate(-0.072 -4.068)"/>
</svg>
