<svg xmlns="http://www.w3.org/2000/svg" width="37.08" height="34.432" viewBox="0 0 37.08 34.432">
  <path id="Icon_awesome-gitlab" data-name="Icon awesome-gitlab" d="M7.618,1.765a.726.726,0,0,0-1.369,0L2.158,14.423h9.559c-.007,0-4.1-12.658-4.1-12.658ZM.065,20.8a1.445,1.445,0,0,0,.514,1.593L18.531,35.713,2.151,14.423ZM11.71,14.423l6.829,21.29,6.829-21.29Zm25.3,6.373-2.086-6.373L18.538,35.713,36.49,22.389a1.449,1.449,0,0,0,.521-1.593ZM30.827,1.765a.726.726,0,0,0-1.369,0l-4.1,12.658h9.559Z" transform="translate(0.003 -1.281)"/>
</svg>
