<svg xmlns="http://www.w3.org/2000/svg" width="46.408" height="31.513" viewBox="0 0 46.408 31.513">
  <path id="Icon_simple-mysql" data-name="Icon simple-mysql" d="M31.722,9.23a2.134,2.134,0,0,0-.53.064v.025h.027a4.362,4.362,0,0,0,.414.528c.1.207.193.414.3.619l.027-.029a.719.719,0,0,0,.271-.644c-.077-.091-.089-.182-.155-.271-.077-.13-.244-.193-.348-.3ZM11.157,34.742H9.365c-.058-3.02-.238-5.859-.522-8.527H8.827L6.1,34.742H4.737L2.03,26.215H2.011q-.3,3.837-.377,8.527H0q.16-5.7.793-10.693H3.017L5.6,31.908h.015l2.6-7.858h2.117q.7,5.845.828,10.693Zm7.768-7.889q-1.1,5.932-2.885,8.624-1.4,2.077-3.061,2.075a3.018,3.018,0,0,1-1.094-.267V36.33a4.962,4.962,0,0,0,.746.05,1.8,1.8,0,0,0,1.251-.429,1.558,1.558,0,0,0,.57-1.17,7.756,7.756,0,0,0-.445-1.825l-1.961-6.1h1.76l1.406,4.563a6.127,6.127,0,0,1,.4,2.172,29.5,29.5,0,0,0,1.615-6.735h1.7Zm23.832,7.889H37.672V24.049h1.711v9.378h3.374ZM36.338,35l-1.965-.967a4.153,4.153,0,0,0,.493-.483A6.55,6.55,0,0,0,36.119,29.2q0-5.308-4.167-5.31a3.965,3.965,0,0,0-3.191,1.348,6.564,6.564,0,0,0-1.249,4.341,6.339,6.339,0,0,0,1.11,4.138A3.8,3.8,0,0,0,31.683,34.9a4.916,4.916,0,0,0,1.4-.189l2.562,1.493.7-1.2Zm-6.366-2.4a6.571,6.571,0,0,1-.652-3.357q0-4.04,2.456-4.041a2.066,2.066,0,0,1,1.889.967,6.541,6.541,0,0,1,.65,3.332q0,4.072-2.456,4.076a2.067,2.067,0,0,1-1.891-.967Zm-3.206-.822a2.833,2.833,0,0,1-1,2.235,3.92,3.92,0,0,1-2.676.87,5.363,5.363,0,0,1-3.042-1l.458-.92a5.188,5.188,0,0,0,2.3.634,2.417,2.417,0,0,0,1.514-.425,1.457,1.457,0,0,0,.58-1.189c0-.638-.445-1.18-1.253-1.634-.75-.412-2.249-1.27-2.249-1.27a2.559,2.559,0,0,1-1.222-2.276,2.654,2.654,0,0,1,.909-2.1,3.426,3.426,0,0,1,2.359-.8,4.854,4.854,0,0,1,2.707.793l-.412.92a5.271,5.271,0,0,0-2.057-.445,1.821,1.821,0,0,0-1.265.4,1.324,1.324,0,0,0-.48,1.013c0,.634.452,1.18,1.288,1.644.76.416,2.3,1.3,2.3,1.3a2.517,2.517,0,0,1,1.253,2.259ZM44.908,20.464a5.929,5.929,0,0,0-2.508.364c-.193.077-.5.077-.53.323.106.1.122.271.213.414a2.967,2.967,0,0,0,.669.787c.271.213.541.418.826.6.5.309,1.073.493,1.566.8.28.182.567.412.851.605.141.1.232.271.414.333v-.039c-.089-.116-.116-.284-.2-.414-.13-.13-.259-.246-.387-.373a6.232,6.232,0,0,0-1.344-1.305c-.414-.282-1.319-.677-1.489-1.151l-.025-.027a5.2,5.2,0,0,0,.889-.2c.439-.116.841-.091,1.3-.2.2-.052.412-.116.619-.182v-.116c-.232-.232-.406-.547-.646-.764a17.147,17.147,0,0,0-2.135-1.591c-.406-.259-.92-.425-1.348-.646-.155-.077-.414-.116-.5-.246a4.986,4.986,0,0,1-.532-.994c-.371-.712-.735-1.5-1.058-2.249a13.39,13.39,0,0,0-.657-1.475,13.028,13.028,0,0,0-5-4.834,6.3,6.3,0,0,0-1.655-.53c-.323-.015-.646-.039-.967-.052a4.692,4.692,0,0,1-.6-.454c-.735-.464-2.638-1.47-3.179-.139-.348.839.516,1.667.816,2.092a5.961,5.961,0,0,1,.657.967c.091.224.116.454.207.688a15.474,15.474,0,0,0,.671,1.735,5.93,5.93,0,0,0,.478.8c.1.141.282.207.323.439a3.764,3.764,0,0,0-.3.967,5.728,5.728,0,0,0,.375,4.351c.207.321.7,1.033,1.359.76.58-.232.452-.967.619-1.615.039-.155.014-.257.093-.362v.029c.182.364.364.71.53,1.073a7.276,7.276,0,0,0,1.676,1.731c.309.232.555.634.942.777v-.039H35.9a1.726,1.726,0,0,0-.3-.257,6.661,6.661,0,0,1-.677-.773,16.939,16.939,0,0,1-1.444-2.355c-.213-.406-.391-.843-.561-1.243-.077-.155-.077-.387-.207-.464a4.772,4.772,0,0,0-.619.876,7.388,7.388,0,0,0-.364,1.953c-.052.014-.027,0-.052.027-.414-.1-.555-.53-.71-.889a5.612,5.612,0,0,1-.116-3.452c.091-.271.478-1.125.323-1.385-.081-.246-.336-.387-.478-.586a4.791,4.791,0,0,1-.464-.826c-.309-.723-.464-1.524-.8-2.247a6.7,6.7,0,0,0-.646-.992,6.506,6.506,0,0,1-.712-1.006c-.064-.141-.155-.375-.052-.53a.22.22,0,0,1,.182-.174c.17-.139.648.043.816.12a6.613,6.613,0,0,1,1.28.646c.182.128.377.373.609.437h.271c.414.091.88.027,1.267.141a8.274,8.274,0,0,1,1.86.889,11.511,11.511,0,0,1,4.032,4.42c.155.3.222.57.364.88.271.638.605,1.282.88,1.9a8.419,8.419,0,0,0,.92,1.735c.193.271.971.412,1.319.553a9.4,9.4,0,0,1,.889.364c.445.271.878.58,1.3.878.213.147.857.47.9.731Z" transform="translate(0 -6.039)"/>
</svg>
