<svg xmlns="http://www.w3.org/2000/svg" width="35.749" height="34.432" viewBox="0 0 35.749 34.432">
  <path id="Icon_simple-jquery" data-name="Icon simple-jquery" d="M2.288,8.764c-3.166,4.549-2.774,10.465-.353,15.3.055.118.116.23.176.342a2.4,2.4,0,0,0,.115.222,1.259,1.259,0,0,0,.07.124c.039.078.081.152.121.227l.234.4c.043.073.085.145.134.218.082.14.179.279.264.419.039.058.075.116.118.174q.217.341.462.662c.116.16.233.315.358.47.04.057.085.113.127.17l.33.4c.04.046.081.1.124.148.146.176.3.347.456.52,0,0,0,.006.007.01a4.668,4.668,0,0,0,.632.656c.119.122.239.245.365.364l.151.145c.166.155.331.31.506.459,0,0,0,0,.007,0l.085.075c.152.133.306.265.462.388l.186.157c.127.1.258.2.388.3l.2.155c.139.1.286.207.428.309.052.037.1.075.158.109l.043.034.419.276.179.119c.219.14.437.273.653.4.063.031.125.066.183.1.161.092.328.186.491.273.089.051.182.094.274.14.112.063.228.124.347.186a.483.483,0,0,1,.084.034c.049.022.1.046.143.07.179.089.365.174.559.26a1.216,1.216,0,0,1,.113.051c.215.094.43.183.652.271.051.015.1.04.157.06.2.076.409.154.613.227l.075.027c.228.078.453.152.685.224.054.015.109.034.166.049a7.252,7.252,0,0,0,.705.2c15.3,2.789,19.749-9.2,19.749-9.2-3.736,4.865-10.365,6.147-16.644,4.72-.233-.054-.465-.128-.7-.2q-.426-.126-.846-.27l-.092-.036c-.2-.069-.4-.145-.6-.221q-.081-.034-.164-.061c-.219-.088-.433-.179-.644-.273-.046-.015-.085-.036-.131-.054q-.27-.124-.538-.254c-.055-.024-.1-.049-.158-.078-.14-.066-.28-.14-.418-.212q-.141-.068-.279-.143c-.169-.089-.337-.186-.506-.279-.051-.036-.109-.066-.167-.1q-.33-.2-.653-.4-.09-.056-.176-.118-.237-.146-.465-.307c-.052-.034-.1-.072-.154-.109q-.222-.154-.438-.316c-.063-.051-.13-.1-.2-.149-.131-.1-.264-.2-.4-.31l-.176-.14q-.253-.2-.5-.419a.385.385,0,0,0-.055-.045l-.518-.471-.149-.14c-.122-.124-.248-.243-.373-.365L8.617,24.6q-.236-.235-.461-.482l-.022-.024c-.158-.173-.312-.349-.467-.528-.04-.046-.078-.1-.119-.145L7.211,23q-.258-.331-.507-.668c-3.482-4.755-4.743-11.317-1.955-16.7m7.363-.7a10.982,10.982,0,0,0-.379,11.184,13.571,13.571,0,0,0,1.01,1.688,7.909,7.909,0,0,0,1.181,1.471c.16.182.333.358.513.535l.134.134q.255.246.522.485l.022.019q.3.263.617.51c.051.034.094.075.143.109.209.161.419.316.637.47l.022.013c.092.067.191.128.3.194.042.027.089.063.134.089.158.1.313.2.473.294.025.01.048.024.072.034.134.082.28.161.421.234.049.03.1.052.148.081.1.049.2.1.294.152l.048.021c.2.1.407.191.608.283.051.019.094.036.137.057.166.072.334.14.5.2.075.025.145.055.215.078.152.057.312.109.462.161l.209.067a5.047,5.047,0,0,0,.668.192c11.812,1.958,14.547-7.139,14.547-7.139C33.3,20.1,28.538,21.786,23.46,20.467q-.337-.087-.668-.194c-.072-.019-.134-.042-.2-.063-.155-.054-.315-.106-.465-.163l-.215-.081c-.167-.067-.337-.13-.5-.2-.051-.022-.1-.037-.136-.06-.209-.094-.419-.186-.622-.286l-.307-.16-.177-.089c-.137-.072-.264-.146-.4-.224a.925.925,0,0,1-.092-.051c-.158-.1-.322-.194-.473-.3-.051-.028-.1-.063-.145-.092l-.31-.2c-.215-.149-.425-.31-.637-.465-.048-.043-.094-.079-.14-.118a14.18,14.18,0,0,1-4.829-6.872,10.679,10.679,0,0,1,.834-8.564m6.394-.219a6.885,6.885,0,0,0-.552,6.644A9.376,9.376,0,0,0,25.2,13.731c.1.037.191.069.291.1l.131.04c.137.043.276.094.418.125,6.526,1.259,8.292-3.351,8.768-4.028-1.554,2.231-4.159,2.767-7.355,1.99a7.224,7.224,0,0,1-.77-.239,9.461,9.461,0,0,1-.92-.379,9.725,9.725,0,0,1-1.611-.984C21.284,8.192,19.51,4.052,21.378.679" transform="translate(-0.016 -0.679)"/>
</svg>
