<svg xmlns="http://www.w3.org/2000/svg" width="54.214" height="28.513" viewBox="0 0 54.214 28.513">
  <path id="Icon_awesome-php" data-name="Icon awesome-php" d="M27.107,7.59c14.519,0,25.684,6.116,25.684,12.833S41.617,33.256,27.107,33.256,1.423,27.14,1.423,20.423,12.6,7.59,27.107,7.59m0-1.423C12.139,6.166,0,12.545,0,20.423S12.139,34.679,27.107,34.679,54.214,28.3,54.214,20.423,42.075,6.166,27.107,6.166ZM18.483,19.279c-.669,3.431-3.033,3.075-5.938,3.075l1.161-5.98C16.925,16.374,19.11,16.026,18.483,19.279ZM8.251,28.411h3.109l.737-3.795c3.482,0,5.642.254,7.641-1.618,2.211-2.033,2.787-5.65,1.211-7.463a4.957,4.957,0,0,0-3.939-1.415H11.021Zm15.73-18.094h3.092l-.737,3.795c2.668,0,5.142-.195,6.336.906,1.254,1.152.652,2.626-.7,9.581H28.835c1.3-6.726,1.55-7.285,1.076-7.793-.457-.491-1.5-.39-4.015-.39L24.3,24.6H21.211l2.77-14.282Zm18.8,8.962c-.678,3.482-3.109,3.075-5.938,3.075L38,16.374C41.236,16.374,43.4,16.026,42.778,19.279ZM32.545,28.411h3.117l.737-3.795c3.659,0,5.684.212,7.641-1.618,2.211-2.033,2.787-5.65,1.211-7.463a4.957,4.957,0,0,0-3.939-1.415H35.323Z" transform="translate(0 -6.166)"/>
</svg>
