<svg xmlns="http://www.w3.org/2000/svg" width="34.004" height="34.004" viewBox="0 0 34.004 34.004">
  <path id="Icon_awesome-bootstrap" data-name="Icon awesome-bootstrap" d="M22.186,23.5a3.02,3.02,0,0,1-3.334,3.145h-6.14v-6.2h6.14c3.23,0,3.334,2.421,3.334,3.056Zm-3.806-5.551A2.727,2.727,0,0,0,21.3,15.19c0-1.178-.266-2.723-2.918-2.723H12.713v5.479ZM34,7.918V30.586a5.684,5.684,0,0,1-5.668,5.668H5.668A5.684,5.684,0,0,1,0,30.586V7.918A5.684,5.684,0,0,1,5.668,2.25H28.336A5.684,5.684,0,0,1,34,7.918Zm-8.345,16.03c0-1.637-.5-4.424-3.723-5.112V18.78a4.349,4.349,0,0,0,2.834-4.223c0-.531.152-4.917-5.89-4.917H9.24V29.475c9.733,0,10.616.128,12.417-.433a5.1,5.1,0,0,0,4-5.094Z" transform="translate(0 -2.25)"/>
</svg>
