<svg xmlns="http://www.w3.org/2000/svg" width="43.666" height="32.753" viewBox="0 0 43.666 32.753">
  <path id="Icon_awesome-sass" data-name="Icon awesome-sass" d="M20.594,25.887C20.574,25.928,20.553,25.961,20.594,25.887Zm17-5.936a8.949,8.949,0,0,0-3.957.921,8.4,8.4,0,0,1-.887-2.054,5.482,5.482,0,0,1-.075-1.726,14.536,14.536,0,0,1,.519-1.856c-.007-.075-.1-.45-.976-.457s-1.638.171-1.726.4a8.38,8.38,0,0,0-.362,1.3,31.615,31.615,0,0,1-2.667,5.138,5.3,5.3,0,0,1-.607-1.5,5.482,5.482,0,0,1-.075-1.726,14.537,14.537,0,0,1,.519-1.856c-.007-.075-.1-.45-.975-.457s-1.638.171-1.726.4-.184.778-.362,1.3-2.312,5.274-2.871,6.509c-.287.628-.532,1.133-.71,1.474-.027.055-.048.089-.061.116.02-.034.034-.068.034-.055-.15.293-.239.457-.239.457V26.3c-.116.218-.246.416-.307.416a2.83,2.83,0,0,1,.02-1.358c.321-1.651,1.078-4.217,1.071-4.305-.007-.048.143-.491-.5-.73a.8.8,0,0,0-.9.15c-.055,0-.1.136-.1.136s.689-2.893-1.323-2.893c-1.255,0-3,1.378-3.86,2.627-.539.293-1.706.928-2.934,1.6l-1.412.778c-.034-.034-.061-.068-.1-.1C7.612,20.012,3.1,18.17,3.294,14.67c.068-1.276.512-4.626,8.67-8.692C18.651,2.648,24,3.562,24.917,5.6c1.324,2.9-2.858,8.3-9.8,9.075-2.647.293-4.038-.73-4.386-1.112-.362-.4-.416-.423-.553-.348-.225.123-.082.478,0,.689a4.111,4.111,0,0,0,2.51,1.972,13.294,13.294,0,0,0,8.131-.805c4.215-1.624,7.5-6.147,6.534-9.934-.98-3.848-7.361-5.11-13.394-2.968a30.35,30.35,0,0,0-10.279,5.9C.356,11.17-.175,13.878.043,15.011.82,19.03,6.359,21.65,8.576,23.588c-.109.061-.212.116-.307.171-1.111.553-5.334,2.763-6.391,5.1-1.194,2.647.2,4.544,1.111,4.8a6.812,6.812,0,0,0,7.339-2.975,7.387,7.387,0,0,0,.655-6.789c-.007-.02-.02-.034-.027-.055.287-.171.58-.341.873-.512.566-.334,1.118-.641,1.6-.907a10.6,10.6,0,0,0-.573,2.907,6.04,6.04,0,0,0,1.3,4.21,1.432,1.432,0,0,0,1.05.341c.942,0,1.365-.778,1.835-1.706.58-1.133,1.092-2.449,1.092-2.449s-.641,3.562,1.112,3.562c.641,0,1.282-.826,1.569-1.249v.007s.014-.027.048-.082c.068-.1.1-.164.1-.164v-.02c.259-.443.826-1.46,1.678-3.139,1.105-2.17,2.162-4.878,2.162-4.878a13.731,13.731,0,0,0,.423,1.76,16.481,16.481,0,0,0,.914,2.047c-.259.355-.416.559-.416.559a.021.021,0,0,0,.007.014c-.2.273-.437.566-.675.853a24.082,24.082,0,0,0-2.047,2.565.7.7,0,0,0,.191.935,1.658,1.658,0,0,0,1.071.171,4.731,4.731,0,0,0,1.6-.368,5.608,5.608,0,0,0,1.378-.723,3.08,3.08,0,0,0,1.324-2.716,5.651,5.651,0,0,0-.5-1.924c.075-.109.157-.225.232-.341a36.271,36.271,0,0,0,2.394-4.136,13.73,13.73,0,0,0,.423,1.76,12.035,12.035,0,0,0,.777,1.753,7.5,7.5,0,0,0-2.326,3.009c-.5,1.453-.109,2.108.635,2.258A2.289,2.289,0,0,0,31.386,27a5.422,5.422,0,0,0,1.473-.757,3.3,3.3,0,0,0,1.623-2.7,5.076,5.076,0,0,0-.368-1.6,8.328,8.328,0,0,1,4.236-.491c3.8.443,4.543,2.818,4.4,3.807a2.523,2.523,0,0,1-1.208,1.706c-.266.164-.348.225-.328.348.034.177.157.171.382.13a2.964,2.964,0,0,0,2.067-2.64c.109-2.32-2.121-4.872-6.072-4.851ZM8.31,29.824c-1.255,1.371-3.015,1.89-3.772,1.453-.812-.472-.491-2.49,1.057-3.952a20.216,20.216,0,0,1,2.96-2.211c.184-.109.45-.273.778-.471.055-.034.082-.048.082-.048.061-.041.13-.075.2-.116a5.446,5.446,0,0,1-1.3,5.342Zm9.167-6.236c-.437,1.071-1.357,3.8-1.917,3.657-.478-.123-.771-2.2-.1-4.251a9.41,9.41,0,0,1,1.494-2.736c.688-.771,1.446-1.017,1.623-.71C18.821,19.951,17.75,22.919,17.477,23.588ZM25.05,27.2c-.184.1-.355.157-.437.109-.061-.034.075-.164.075-.164s.948-1.017,1.324-1.481c.218-.273.471-.594.743-.948,0,.034.007.068.007.109A3.164,3.164,0,0,1,25.048,27.2Zm5.839-1.33c-.136-.1-.116-.416.341-1.412a5.3,5.3,0,0,1,1.3-1.672,2.469,2.469,0,0,1,.13.737,2.406,2.406,0,0,1-1.766,2.347Z" transform="translate(0 -1.125)"/>
</svg>
