<svg width="0" height="0" class="hidden">
  <symbol xmlns="http://www.w3.org/2000/svg" xmlns:xlink="http://www.w3.org/1999/xlink" xmlnsSvgjs="http://svgjs.com/svgjs" id="Icon mongodb"><svg xmlns="http://www.w3.org/2000/svg" viewBox="0 0 512 146">
      <g fill="none" fill-rule="evenodd">
        <path fill="#61657b" d="M476.713 60.463c-.46.092-.922 1.107-.922 1.66-.092 3.692-.184 13.474-.184 20.118 0 .185.276.554.553.554 1.384.092 4.706.184 7.567.184 3.968 0 6.275-.553 7.568-1.106 3.321-1.662 4.89-5.261 4.89-9.23 0-8.95-6.275-12.365-15.596-12.365-.646-.092-2.49-.092-3.876.185zm23.81 41.25c0-9.136-6.737-14.212-18.918-14.212-.554 0-4.43-.092-5.353.092-.277.093-.645.278-.645.555 0 6.551-.093 16.98.184 21.04.184 1.753 1.477 4.245 3.046 4.983 1.66.923 5.444 1.107 8.028 1.107 7.29 0 13.658-4.06 13.658-13.565zm-42.634-46.325c.922 0 3.69.276 10.796.276 6.737 0 12.089-.184 18.641-.184 8.028 0 19.102 2.86 19.102 14.857 0 5.906-4.153 10.613-9.597 12.92-.276.092-.276.276 0 .368 7.751 1.939 14.581 6.737 14.581 15.78 0 8.86-5.537 14.489-13.566 17.996-4.891 2.122-10.981 2.86-17.164 2.86-4.707 0-17.349-.553-24.362-.368-.738-.278.646-3.6 1.291-4.153 1.662-.093 2.953-.185 4.707-.739 2.492-.645 2.768-1.384 3.137-5.167.185-3.23.185-14.674.185-22.794 0-11.166.093-18.733 0-22.424-.092-2.86-1.107-3.784-3.137-4.338-1.57-.276-4.153-.646-6.276-.922-.462-.462 1.107-3.6 1.662-3.968zm-53.248 57.399c2.216 1.752 6.553 2.49 10.429 2.49 4.983 0 9.966-.921 14.765-5.26 4.891-4.428 8.305-11.257 8.305-22.146 0-10.429-3.968-18.919-12.089-23.901-4.614-2.862-10.52-4.06-17.349-4.06-2.03 0-3.968.092-5.167.645-.278.185-.923 1.015-.923 1.476-.185 1.846-.185 16.057-.185 24.363 0 8.582 0 20.579.185 21.963 0 1.385.645 3.507 2.03 4.43zm-20.948-57.4c1.754 0 8.49.277 11.72.277 5.815 0 9.967-.276 20.948-.276 9.228 0 16.98 2.491 22.517 7.197 6.736 5.814 10.244 13.843 10.244 23.624 0 13.935-6.368 21.964-12.736 26.578-6.366 4.706-14.672 7.474-26.484 7.474-6.275 0-17.072-.184-26.024-.277h-.092c-.461-.83.738-4.06 1.476-4.152 2.4-.277 3.046-.37 4.246-.83 1.937-.739 2.307-1.754 2.584-5.168.276-6.368.184-14.027.184-22.702 0-6.182.092-18.272-.093-22.148-.276-3.229-1.66-4.06-4.429-4.614-1.384-.276-3.23-.646-5.813-.922-.37-.647 1.291-3.507 1.752-4.06z"></path>
        <path fill="#61657b" d="M272.033 116.385c-2.307-.277-3.968-.645-5.998-1.568-.277-.185-.739-1.107-.739-1.477-.184-3.23-.184-12.458-.184-18.64 0-4.984-.83-9.321-2.953-12.366-2.492-3.508-6.09-5.537-10.705-5.537-4.06 0-9.505 2.768-14.027 6.644-.092.092-.83.739-.738-.277 0-1.015.185-3.045.277-4.43.093-1.292-.646-1.937-.646-1.937-2.953 1.476-11.258 3.414-14.304 3.69-2.214.463-2.768 2.585-.46 3.323h.092c2.49.738 4.152 1.569 5.443 2.4.923.738.831 1.753.831 2.584.092 6.92.092 17.533-.184 23.347-.092 2.307-.738 3.137-2.4 3.506l.185-.092c-1.292.277-2.307.553-3.876.738-.554.554-.554 3.507 0 4.153 1.015 0 6.367-.277 10.798-.277 6.09 0 9.228.277 10.796.277.646-.738.831-3.507.462-4.153-1.754-.092-3.046-.276-4.245-.646-1.661-.37-2.123-1.199-2.216-3.137-.183-4.892-.183-15.227-.183-22.24 0-1.938.553-2.861 1.106-3.415 2.123-1.845 5.538-3.137 8.583-3.137 2.953 0 4.89.923 6.367 2.123 2.03 1.66 2.676 4.06 2.953 5.813.461 3.968.277 11.812.277 18.641 0 3.691-.277 4.614-1.66 5.075-.647.277-2.308.647-4.246.83-.646.647-.461 3.508 0 4.154 2.676 0 5.814-.277 10.428-.277 5.721 0 9.413.277 10.89.277.46-.554.645-3.23.276-3.969zm25.562-35.25c-4.89 0-7.936 3.783-7.936 9.688 0 5.999 2.676 12.92 10.243 12.92 1.292 0 3.692-.554 4.798-1.846 1.754-1.66 2.954-4.983 2.954-8.49 0-7.659-3.784-12.273-10.059-12.273zm-.646 40.787c-1.845 0-3.138.554-3.968 1.016-3.876 2.49-5.629 4.89-5.629 7.752 0 2.675 1.015 4.797 3.23 6.643 2.676 2.307 6.367 3.415 11.073 3.415 9.413 0 13.566-5.076 13.566-10.058 0-3.508-1.754-5.815-5.352-7.106-2.584-1.108-7.29-1.662-12.92-1.662zm.646 23.994c-5.629 0-9.69-1.2-13.196-3.876-3.415-2.584-4.891-6.46-4.891-9.136 0-.738.185-2.769 1.846-4.614 1.014-1.108 3.23-3.23 8.49-6.829.184-.092.276-.184.276-.37 0-.184-.185-.369-.369-.46-4.337-1.661-5.629-4.338-5.999-5.814v-.185c-.091-.554-.276-1.107.555-1.661.646-.461 1.569-1.015 2.583-1.66 1.569-.924 3.23-1.939 4.245-2.77.185-.184.185-.368.185-.553 0-.185-.185-.37-.37-.461-6.458-2.123-9.688-6.922-9.688-14.12 0-4.706 2.122-8.951 5.905-11.627 2.584-2.03 9.044-4.522 13.289-4.522h.277c4.337.092 6.736 1.015 10.15 2.215 1.846.646 3.6.922 6 .922 3.598 0 5.167-1.107 6.458-2.398.093.184.278.646.37 1.845.092 1.2-.277 2.953-1.2 4.245-.738 1.015-2.399 1.754-4.06 1.754h-.462c-1.661-.185-2.4-.37-2.4-.37l-.368.185c-.092.185 0 .369.092.646l.093.185c.184.83.553 3.321.553 3.968 0 7.567-3.045 10.888-6.275 13.38-3.138 2.307-6.736 3.783-10.797 4.153-.092 0-.46 0-1.292.092-.461 0-1.107.093-1.2.093h-.092c-.738.184-2.583 1.107-2.583 2.675 0 1.384.83 3.046 4.798 3.323.83.092 1.66.092 2.584.185 5.26.368 11.812.83 14.857 1.845 4.245 1.568 6.921 5.352 6.921 9.874 0 6.83-4.89 13.197-13.011 17.164-3.968 1.754-7.937 2.677-12.274 2.677zm52.6-64.32c-1.937 0-3.691.46-4.983 1.383-3.598 2.215-5.444 6.645-5.444 13.104 0 12.09 6.09 20.58 14.765 20.58 2.584 0 4.614-.739 6.367-2.215 2.676-2.216 4.061-6.645 4.061-12.828 0-11.996-5.999-20.025-14.765-20.025zm1.662 39.496c-15.688 0-21.317-11.535-21.317-22.332 0-7.567 3.045-13.381 9.135-17.534 4.338-2.676 9.506-4.152 14.12-4.152 11.996 0 20.394 8.582 20.394 20.948 0 8.397-3.322 15.041-9.69 19.102-3.045 2.03-8.305 3.968-12.643 3.968h.001zM187.411 81.595c-1.938 0-3.691.461-4.984 1.384-3.598 2.215-5.444 6.645-5.444 13.104 0 12.09 6.09 20.58 14.765 20.58 2.584 0 4.614-.739 6.368-2.215 2.675-2.216 4.06-6.645 4.06-12.828 0-11.996-5.906-20.025-14.765-20.025zm1.661 39.497c-15.688 0-21.317-11.535-21.317-22.332 0-7.567 3.045-13.381 9.135-17.534 4.338-2.676 9.506-4.152 14.12-4.152 11.997 0 20.394 8.582 20.394 20.948 0 8.397-3.322 15.041-9.69 19.102-2.953 2.03-8.213 3.968-12.642 3.968zm-105.478-.923c-.185-.276-.37-1.107-.277-2.122 0-.739.185-1.2.277-1.384 1.938-.278 2.953-.555 4.06-.831 1.846-.462 2.584-1.476 2.676-3.783.278-5.537.278-16.058.185-23.348v-.185c0-.83 0-1.846-1.015-2.584-1.477-.922-3.23-1.752-5.537-2.4-.83-.275-1.384-.737-1.292-1.29 0-.554.554-1.2 1.754-1.385 3.045-.277 10.98-2.214 14.118-3.599.185.184.462.739.462 1.477l-.092 1.014c-.093 1.016-.185 2.216-.185 3.415 0 .369.37.646.738.646.185 0 .37-.092.554-.185 5.906-4.614 11.258-6.275 14.026-6.275 4.523 0 8.03 2.123 10.706 6.552.184.278.369.37.646.37.184 0 .46-.092.553-.277 5.445-4.153 10.89-6.645 14.488-6.645 8.582 0 13.658 6.368 13.658 17.165 0 3.045 0 7.013-.092 10.613 0 3.229-.092 6.182-.092 8.305 0 .46.645 1.937 1.66 2.214 1.292.646 3.046.923 5.353 1.292h.092c.185.646-.184 3.045-.553 3.507-.554 0-1.385 0-2.307-.092a136.208 136.208 0 0 0-7.014-.185c-5.721 0-8.674.092-11.536.277-.183-.738-.276-2.953 0-3.507 1.662-.276 2.492-.554 3.508-.83 1.846-.554 2.307-1.385 2.4-3.784 0-1.753.368-16.703-.186-20.302-.553-3.691-3.322-8.028-9.413-8.028-2.307 0-5.905.923-9.412 3.598-.184.185-.37.646-.37.923v.093c.37 1.937.37 4.153.37 7.567v5.998c0 4.153-.093 8.029 0 10.981 0 2.031 1.2 2.492 2.215 2.862.554.091.922.184 1.384.276.83.185 1.661.37 2.953.646.185.37.185 1.569-.092 2.584-.093.554-.278.83-.37.923-3.137-.092-6.367-.185-11.073-.185-1.384 0-3.784.093-5.814.093-1.662 0-3.23.092-4.152.092-.093-.185-.278-.83-.278-1.846 0-.83.185-1.476.37-1.661.461-.092.83-.184 1.292-.184 1.106-.185 2.03-.37 2.952-.554 1.57-.461 2.123-1.292 2.215-3.322.277-4.614.554-17.81-.092-21.133-1.107-5.352-4.152-8.028-9.044-8.028-2.86 0-6.46 1.384-9.412 3.6-.462.368-.831 1.29-.831 2.121v5.445c0 6.644 0 14.95.092 18.549.093 1.106.461 2.399 2.584 2.86.462.092 1.2.277 2.123.37l1.66.276c.186.554.093 2.769-.276 3.507-.923 0-2.03-.092-3.323-.092a150.02 150.02 0 0 0-7.197-.185c-3.23 0-5.537.092-7.383.185-1.292-.185-2.307-.185-3.414-.185z"></path>
        <path fill="#fff" d="M35.053 142.317l-3.783-1.293s.462-19.286-6.46-20.67c-4.613-5.353.74-227.013 17.35-.739 0 0-5.722 2.86-6.737 7.752-1.108 4.799-.37 14.95-.37 14.95z"></path>
        <path fill="#898da2" d="M35.053 142.317l-3.783-1.293s.462-19.286-6.46-20.67c-4.613-5.353.74-227.013 17.35-.739 0 0-5.722 2.86-6.737 7.752-1.108 4.799-.37 14.95-.37 14.95z"></path>
        <path fill="#fff" d="M37.084 123.676s33.13-21.779 25.377-67.09c-7.474-32.943-25.1-43.74-27.038-47.893C33.301 5.74 31.27.573 31.27.573l1.385 91.634c0 .093-2.861 28.054 4.43 31.47"></path>
        <path fill="#656a81" d="M37.084 123.676s33.13-21.779 25.377-67.09c-7.474-32.943-25.1-43.74-27.038-47.893C33.301 5.74 31.27.573 31.27.573l1.385 91.634c0 .093-2.861 28.054 4.43 31.47"></path>
        <path fill="#fff" d="M29.333 124.875S-1.767 103.65.079 66.277C1.832 28.903 23.795 10.539 28.04 7.217c2.769-2.953 2.861-4.061 3.046-7.014 1.938 4.153 1.569 62.106 1.845 68.934.83 26.3-1.476 50.756-3.598 55.738z"></path>
        <path fill="#6e738c" d="M29.333 124.875S-1.767 103.65.079 66.277C1.832 28.903 23.795 10.539 28.04 7.217c2.769-2.953 2.861-4.061 3.046-7.014 1.938 4.153 1.569 62.106 1.845 68.934.83 26.3-1.476 50.756-3.598 55.738z"></path>
      </g>
    </svg></symbol>
  <symbol xmlns="http://www.w3.org/2000/svg" viewBox="0 0 24 24" id="Icon person">
    <path d="M12 2.85A3.15 3.15 0 1 1 8.85 6 3.15 3.15 0 0 1 12 2.85m0 13.5c4.455 0 9.15 2.19 9.15 3.15v1.65H2.85V19.5c0-.96 4.695-3.15 9.15-3.15M12 0a6 6 0 1 0 6 6 6 6 0 0 0-6-6zm0 13.5c-4.005 0-12 2.01-12 6V24h24v-4.5c0-3.99-7.995-6-12-6z"></path>
  </symbol>
  <symbol xmlns="http://www.w3.org/2000/svg" viewBox="0 0 26.954 27.003" id="Icon phone">
    <path d="M25.453 19.468v3.613a2.409 2.409 0 0 1-2.625 2.409 23.834 23.834 0 0 1-10.393-3.7 23.484 23.484 0 0 1-7.226-7.226 23.834 23.834 0 0 1-3.7-10.441A2.409 2.409 0 0 1 3.907 1.5H7.52a2.409 2.409 0 0 1 2.413 2.071 15.463 15.463 0 0 0 .843 3.384 2.409 2.409 0 0 1-.543 2.545l-1.529 1.529a19.269 19.269 0 0 0 7.226 7.226l1.529-1.529A2.409 2.409 0 0 1 20 16.184a15.463 15.463 0 0 0 3.384.843 2.409 2.409 0 0 1 2.071 2.445z" fill="none" stroke="#000" stroke-linecap="round" stroke-linejoin="round" stroke-width="3"></path>
  </symbol>
  <symbol xmlns="http://www.w3.org/2000/svg" viewBox="0 0 36 36" id="Icon simple-javascript">
    <path d="M0 0h36v36H0zm33.051 27.414c-.263-1.642-1.332-3.023-4.5-4.309-1.1-.517-2.331-.878-2.7-1.71a1.771 1.771 0 0 1-.069-1.058 1.719 1.719 0 0 1 2.273-.99 2.44 2.44 0 0 1 1.464 1.35c1.551-1.014 1.551-1.014 2.632-1.687a6.191 6.191 0 0 0-.879-1.17 5.038 5.038 0 0 0-4.251-1.551l-1.058.133a4.835 4.835 0 0 0-2.563 1.507 4.706 4.706 0 0 0 .854 6.706c2.048 1.53 5.042 1.866 5.424 3.307.36 1.755-1.305 2.318-2.949 2.115a3.949 3.949 0 0 1-2.632-2l-2.747 1.574a6.066 6.066 0 0 0 1.215 1.663c2.61 2.634 9.135 2.5 10.306-1.506a5.077 5.077 0 0 0 .111-2.475l.069.1zM19.576 16.546H16.2c0 2.907-.014 5.8-.014 8.708 0 1.848.094 3.545-.207 4.066-.495 1.034-1.77.9-2.349.72a2.894 2.894 0 0 1-1.245-1.282 1.287 1.287 0 0 0-.191-.294l-2.732 1.687a5.306 5.306 0 0 0 1.986 2.275 6.6 6.6 0 0 0 4.81.607 4.213 4.213 0 0 0 2.716-2.117c.765-1.4.6-3.1.6-5.019.018-3.081 0-6.163 0-9.269l.006-.084z"></path>
  </symbol>
  <symbol xmlns="http://www.w3.org/2000/svg" viewBox="0 0 35.749 34.432" id="Icon simple-jquery">
    <path d="M2.272 8.085c-3.166 4.549-2.774 10.465-.353 15.3.055.118.116.23.176.342a2.4 2.4 0 0 0 .115.222 1.259 1.259 0 0 0 .07.124c.039.078.081.152.121.227l.234.4c.043.073.085.145.134.218.082.14.179.279.264.419.039.058.075.116.118.174q.217.341.462.662c.116.16.233.315.358.47.04.057.085.113.127.17l.33.4c.04.046.081.1.124.148a16.791 16.791 0 0 0 .463.53 4.668 4.668 0 0 0 .632.656c.119.122.239.245.365.364l.151.145c.166.155.331.31.506.459h.007l.085.075c.152.133.306.265.462.388l.186.157c.127.1.258.2.388.3l.2.155.428.309c.052.037.1.075.158.109l.043.034.419.276.179.119c.219.14.437.273.653.4.063.031.125.066.183.1.161.092.328.186.491.273.089.051.182.094.274.14.112.063.228.124.347.186a.483.483 0 0 1 .084.034 14.004 14.004 0 0 0 .702.33 1.216 1.216 0 0 1 .113.051c.215.094.43.183.652.271.051.015.1.04.157.06.2.076.409.154.613.227l.075.027c.228.078.453.152.685.224.054.015.109.034.166.049a7.252 7.252 0 0 0 .705.2c15.3 2.789 19.749-9.2 19.749-9.2-3.736 4.865-10.365 6.147-16.644 4.72-.233-.054-.465-.128-.7-.2q-.426-.126-.846-.27l-.092-.036c-.2-.069-.4-.145-.6-.221q-.081-.034-.164-.061a18.863 18.863 0 0 1-.644-.273c-.046-.015-.085-.036-.131-.054q-.27-.124-.538-.254c-.055-.024-.1-.049-.158-.078-.14-.066-.28-.14-.418-.212q-.141-.068-.279-.143c-.169-.089-.337-.186-.506-.279-.051-.036-.109-.066-.167-.1q-.33-.2-.653-.4-.09-.056-.176-.118-.237-.146-.465-.307c-.052-.034-.1-.072-.154-.109q-.222-.154-.438-.316c-.063-.051-.13-.1-.2-.149-.131-.1-.264-.2-.4-.31l-.176-.14q-.253-.2-.5-.419a.385.385 0 0 0-.055-.045l-.518-.471-.149-.14c-.122-.124-.248-.243-.373-.365l-.128-.138q-.236-.235-.461-.482l-.022-.024a26.62 26.62 0 0 1-.467-.528c-.04-.046-.078-.1-.119-.145l-.337-.421q-.258-.331-.507-.668c-3.482-4.755-4.743-11.317-1.955-16.7m7.363-.7a10.982 10.982 0 0 0-.379 11.184 13.571 13.571 0 0 0 1.01 1.688 7.909 7.909 0 0 0 1.181 1.471c.16.182.333.358.513.535l.134.134q.255.246.522.485l.022.019q.3.263.617.51c.051.034.094.075.143.109.209.161.419.316.637.47l.022.013c.092.067.191.128.3.194.042.027.089.063.134.089.158.1.313.2.473.294.025.01.048.024.072.034.134.082.28.161.421.234.049.03.1.052.148.081.1.049.2.1.294.152l.048.021c.2.1.407.191.608.283.051.019.094.036.137.057.166.072.334.14.5.2.075.025.145.055.215.078.152.057.312.109.462.161l.209.067a5.047 5.047 0 0 0 .668.192c11.812 1.958 14.547-7.139 14.547-7.139-2.47 3.552-7.232 5.238-12.31 3.919q-.337-.087-.668-.194c-.072-.019-.134-.042-.2-.063-.155-.054-.315-.106-.465-.163l-.215-.081c-.167-.067-.337-.13-.5-.2-.051-.022-.1-.037-.136-.06-.209-.094-.419-.186-.622-.286l-.307-.16-.177-.089c-.137-.072-.264-.146-.4-.224a.925.925 0 0 1-.092-.051c-.158-.1-.322-.194-.473-.3-.051-.028-.1-.063-.145-.092l-.31-.2c-.215-.149-.425-.31-.637-.465-.048-.043-.094-.079-.14-.118a14.18 14.18 0 0 1-4.829-6.872 10.679 10.679 0 0 1 .834-8.564m6.394-.219a6.885 6.885 0 0 0-.552 6.644 9.376 9.376 0 0 0 5.38 5.021c.1.037.191.069.291.1l.131.04c.137.043.276.094.418.125 6.526 1.259 8.292-3.351 8.768-4.028-1.554 2.231-4.159 2.767-7.355 1.99a7.224 7.224 0 0 1-.77-.239 9.461 9.461 0 0 1-.92-.379 9.725 9.725 0 0 1-1.611-.984C21.268 7.513 19.494 3.373 21.362 0"></path>
  </symbol>
  <symbol xmlns="http://www.w3.org/2000/svg" viewBox="0 0 46.408 31.513" id="Icon simple-mysql">
    <path d="M31.722 3.191a2.134 2.134 0 0 0-.53.064v.025h.027a4.362 4.362 0 0 0 .414.528c.1.207.193.414.3.619l.027-.029a.719.719 0 0 0 .271-.644c-.077-.091-.089-.182-.155-.271-.077-.13-.244-.193-.348-.3zM11.157 28.703H9.365a98.417 98.417 0 0 0-.522-8.527h-.016L6.1 28.703H4.737L2.03 20.176h-.019q-.3 3.837-.377 8.527H0q.16-5.7.793-10.693h2.224L5.6 25.869h.015l2.6-7.858h2.117q.7 5.845.828 10.693zm7.768-7.889q-1.1 5.932-2.885 8.624-1.4 2.077-3.061 2.075a3.018 3.018 0 0 1-1.094-.267v-.955a4.962 4.962 0 0 0 .746.05 1.8 1.8 0 0 0 1.251-.429 1.558 1.558 0 0 0 .57-1.17 7.756 7.756 0 0 0-.445-1.825l-1.961-6.1h1.76l1.406 4.563a6.127 6.127 0 0 1 .4 2.172 29.5 29.5 0 0 0 1.615-6.735h1.7zm23.832 7.889h-5.085V18.01h1.711v9.378h3.374zm-6.419.258l-1.965-.967a4.153 4.153 0 0 0 .493-.483 6.55 6.55 0 0 0 1.253-4.35q0-5.308-4.167-5.31a3.965 3.965 0 0 0-3.191 1.348 6.564 6.564 0 0 0-1.249 4.341 6.339 6.339 0 0 0 1.11 4.138 3.8 3.8 0 0 0 3.061 1.183 4.916 4.916 0 0 0 1.4-.189l2.562 1.493.7-1.2zm-6.366-2.4a6.571 6.571 0 0 1-.652-3.357q0-4.04 2.456-4.041a2.066 2.066 0 0 1 1.889.967 6.541 6.541 0 0 1 .65 3.332q0 4.072-2.456 4.076a2.067 2.067 0 0 1-1.891-.967zm-3.206-.822a2.833 2.833 0 0 1-1 2.235 3.92 3.92 0 0 1-2.676.87 5.363 5.363 0 0 1-3.042-1l.458-.92a5.188 5.188 0 0 0 2.3.634 2.417 2.417 0 0 0 1.514-.425 1.457 1.457 0 0 0 .58-1.189c0-.638-.445-1.18-1.253-1.634-.75-.412-2.249-1.27-2.249-1.27a2.559 2.559 0 0 1-1.222-2.276 2.654 2.654 0 0 1 .909-2.1 3.426 3.426 0 0 1 2.359-.8 4.854 4.854 0 0 1 2.707.793l-.412.92a5.271 5.271 0 0 0-2.057-.445 1.821 1.821 0 0 0-1.265.4 1.324 1.324 0 0 0-.48 1.013c0 .634.452 1.18 1.288 1.644.76.416 2.3 1.3 2.3 1.3a2.517 2.517 0 0 1 1.253 2.259zm18.142-11.314a5.929 5.929 0 0 0-2.508.364c-.193.077-.5.077-.53.323.106.1.122.271.213.414a2.967 2.967 0 0 0 .669.787c.271.213.541.418.826.6.5.309 1.073.493 1.566.8.28.182.567.412.851.605.141.1.232.271.414.333v-.039c-.089-.116-.116-.284-.2-.414-.13-.13-.259-.246-.387-.373a6.232 6.232 0 0 0-1.344-1.305c-.414-.282-1.319-.677-1.489-1.151l-.025-.027a5.2 5.2 0 0 0 .889-.2c.439-.116.841-.091 1.3-.2.2-.052.412-.116.619-.182v-.116c-.232-.232-.406-.547-.646-.764a17.147 17.147 0 0 0-2.135-1.591c-.406-.259-.92-.425-1.348-.646-.155-.077-.414-.116-.5-.246a4.986 4.986 0 0 1-.532-.994c-.371-.712-.735-1.5-1.058-2.249a13.39 13.39 0 0 0-.657-1.475 13.028 13.028 0 0 0-5-4.834 6.3 6.3 0 0 0-1.655-.53c-.323-.015-.646-.039-.967-.052a4.692 4.692 0 0 1-.6-.454c-.735-.464-2.638-1.47-3.179-.139-.348.839.516 1.667.816 2.092a5.961 5.961 0 0 1 .657.967c.091.224.116.454.207.688a15.474 15.474 0 0 0 .671 1.735 5.93 5.93 0 0 0 .478.8c.1.141.282.207.323.439a3.764 3.764 0 0 0-.3.967 5.728 5.728 0 0 0 .375 4.351c.207.321.7 1.033 1.359.76.58-.232.452-.967.619-1.615.039-.155.014-.257.093-.362v.029c.182.364.364.71.53 1.073a7.276 7.276 0 0 0 1.676 1.731c.309.232.555.634.942.777v-.039H35.9a1.726 1.726 0 0 0-.3-.257 6.661 6.661 0 0 1-.677-.773 16.939 16.939 0 0 1-1.444-2.355c-.213-.406-.391-.843-.561-1.243-.077-.155-.077-.387-.207-.464a4.772 4.772 0 0 0-.619.876 7.388 7.388 0 0 0-.364 1.953c-.052.014-.027 0-.052.027-.414-.1-.555-.53-.71-.889a5.612 5.612 0 0 1-.116-3.452c.091-.271.478-1.125.323-1.385-.081-.246-.336-.387-.478-.586a4.791 4.791 0 0 1-.464-.826c-.309-.723-.464-1.524-.8-2.247a6.7 6.7 0 0 0-.646-.992 6.506 6.506 0 0 1-.712-1.006c-.064-.141-.155-.375-.052-.53a.22.22 0 0 1 .182-.174c.17-.139.648.043.816.12a6.613 6.613 0 0 1 1.28.646c.182.128.377.373.609.437h.271c.414.091.88.027 1.267.141a8.274 8.274 0 0 1 1.86.889 11.511 11.511 0 0 1 4.032 4.42c.155.3.222.57.364.88.271.638.605 1.282.88 1.9a8.419 8.419 0 0 0 .92 1.735c.193.271.971.412 1.319.553a9.4 9.4 0 0 1 .889.364c.445.271.878.58 1.3.878.213.147.857.47.9.731z"></path>
  </symbol>
  <symbol xmlns="http://www.w3.org/2000/svg" viewBox="0 0 34.004 34.004" id="Icon awesome-bootstrap">
    <path d="M22.186 21.25a3.02 3.02 0 0 1-3.334 3.145h-6.14v-6.2h6.14c3.23 0 3.334 2.421 3.334 3.056zm-3.806-5.551a2.727 2.727 0 0 0 2.92-2.759c0-1.178-.266-2.723-2.918-2.723h-5.669v5.479zM34 5.668v22.668a5.684 5.684 0 0 1-5.668 5.668H5.668A5.684 5.684 0 0 1 0 28.336V5.668A5.684 5.684 0 0 1 5.668 0h22.668A5.684 5.684 0 0 1 34 5.668zm-8.345 16.03c0-1.637-.5-4.424-3.723-5.112v-.056a4.349 4.349 0 0 0 2.834-4.223c0-.531.152-4.917-5.89-4.917H9.24v19.835c9.733 0 10.616.128 12.417-.433a5.1 5.1 0 0 0 4-5.094z"></path>
  </symbol>
  <symbol xmlns="http://www.w3.org/2000/svg" viewBox="0 0 29.146 34.004" id="Icon awesome-css3-alt">
    <path d="M0 0l2.649 30.042 11.924 3.962L26.5 30.042 29.146 0zm23.765 6.072l-.364 3.59-8.751 3.742-.023.008h8.463l-.972 11.127-7.453 2.178-7.5-2.216-.486-5.609h3.712l.243 2.907 3.992 1.009 4.152-1.169.281-4.676-12.623-.037v-.008l-.015.008-.273-3.514 8.509-3.545.493-.2H5.822l-.44-3.59z"></path>
  </symbol>
  <symbol xmlns="http://www.w3.org/2000/svg" viewBox="0 0 40.5 36" id="Icon awesome-external-link-alt">
    <path d="M40.5 1.688v9a1.689 1.689 0 0 1-2.881 1.193l-2.51-2.512-17.123 17.123a1.687 1.687 0 0 1-2.386 0L14.008 24.9a1.687 1.687 0 0 1 0-2.386L31.131 5.391l-2.51-2.511A1.689 1.689 0 0 1 29.814 0h9A1.687 1.687 0 0 1 40.5 1.688zM28.619 19.04l-1.125 1.125A1.687 1.687 0 0 0 27 21.358V31.5H4.5V9h18.563a1.688 1.688 0 0 0 1.193-.494l1.125-1.125A1.688 1.688 0 0 0 24.188 4.5H3.375A3.375 3.375 0 0 0 0 7.875v24.75A3.375 3.375 0 0 0 3.375 36h24.75a3.375 3.375 0 0 0 3.375-3.375V20.233a1.687 1.687 0 0 0-2.881-1.193z"></path>
  </symbol>
  <symbol xmlns="http://www.w3.org/2000/svg" viewBox="0 0 31.5 31.5" id="Icon awesome-git-alt">
    <path d="M30.906 14.35L17.156.594a2.03 2.03 0 0 0-2.869 0L11.428 3.45l3.622 3.623a2.41 2.41 0 0 1 3.05 3.072l3.492 3.492a2.413 2.413 0 1 1-1.444 1.361l-3.258-3.256v8.568a2.412 2.412 0 1 1-1.984-.07v-8.649A2.412 2.412 0 0 1 13.6 8.427L10.024 4.85l-9.43 9.433a2.029 2.029 0 0 0 0 2.869l13.754 13.754a2.029 2.029 0 0 0 2.869 0l13.689-13.689a2.029 2.029 0 0 0 0-2.869z"></path>
  </symbol>
  <symbol xmlns="http://www.w3.org/2000/svg" viewBox="0 0 34.875 34.004" id="Icon awesome-github">
    <path d="M11.665 27.379c0 .141-.162.253-.366.253-.232.021-.394-.091-.394-.253 0-.141.162-.253.366-.253.211-.021.394.091.394.253zm-2.187-.316c-.049.141.091.3.3.345a.33.33 0 0 0 .436-.141c.042-.141-.091-.3-.3-.366a.361.361 0 0 0-.436.162zm3.108-.12c-.2.049-.345.183-.323.345.021.141.2.232.415.183s.345-.183.323-.323-.211-.226-.415-.205zM17.212 0A16.86 16.86 0 0 0 0 17.156a17.628 17.628 0 0 0 11.918 16.818c.9.162 1.216-.394 1.216-.851 0-.436-.021-2.841-.021-4.317 0 0-4.922 1.055-5.955-2.1 0 0-.8-2.046-1.955-2.573 0 0-1.61-1.1.113-1.083a3.711 3.711 0 0 1 2.714 1.819 3.717 3.717 0 0 0 5.126 1.47 3.908 3.908 0 0 1 1.125-2.37c-3.93-.436-7.9-1.005-7.9-7.77a5.329 5.329 0 0 1 1.659-4.141 6.643 6.643 0 0 1 .183-4.774c1.47-.457 4.852 1.9 4.852 1.9a16.611 16.611 0 0 1 8.831 0s3.382-2.363 4.852-1.9a6.64 6.64 0 0 1 .183 4.774 5.466 5.466 0 0 1 1.814 4.141c0 6.785-4.141 7.327-8.072 7.77a4.158 4.158 0 0 1 1.2 3.263c0 2.37-.021 5.3-.021 5.878 0 .457.323 1.013 1.216.851a17.466 17.466 0 0 0 11.8-16.8C34.875 7.403 26.965 0 17.212 0zM6.834 24.25c-.091.07-.07.232.049.366.113.112.274.162.366.07.091-.07.07-.232-.049-.366-.113-.112-.274-.161-.366-.07zm-.759-.57c-.049.091.021.2.162.274a.209.209 0 0 0 .3-.049c.049-.091-.021-.2-.162-.274-.138-.042-.251-.021-.3.05zm2.278 2.5c-.113.091-.07.3.091.436.162.162.366.183.457.07.091-.091.049-.3-.091-.436-.155-.158-.365-.179-.457-.066zm-.8-1.034c-.113.07-.113.253 0 .415s.3.232.394.162a.321.321 0 0 0 0-.436c-.1-.158-.283-.228-.395-.137z"></path>
  </symbol>
  <symbol xmlns="http://www.w3.org/2000/svg" viewBox="0 0 31.5 31.5" id="Icon awesome-github-square">
    <path d="M28.125 0H3.375A3.376 3.376 0 0 0 0 3.375v24.75A3.376 3.376 0 0 0 3.375 31.5h24.75a3.376 3.376 0 0 0 3.375-3.375V3.375A3.376 3.376 0 0 0 28.125 0zM19.5 26.979c-.591.105-.809-.26-.809-.562 0-.38.014-2.32.014-3.888a2.74 2.74 0 0 0-.795-2.159c2.6-.288 5.344-.647 5.344-5.14a3.61 3.61 0 0 0-1.2-2.742 4.4 4.4 0 0 0-.12-3.164c-.977-.3-3.213 1.259-3.213 1.259a11.061 11.061 0 0 0-5.85 0s-2.236-1.561-3.213-1.259a4.364 4.364 0 0 0-.12 3.164 3.531 3.531 0 0 0-1.1 2.742c0 4.472 2.623 4.852 5.224 5.14a2.548 2.548 0 0 0-.745 1.568 2.467 2.467 0 0 1-3.4-.977 2.45 2.45 0 0 0-1.793-1.2c-1.139-.014-.077.717-.077.717.759.352 1.294 1.7 1.294 1.7.682 2.088 3.945 1.385 3.945 1.385 0 .977.014 2.566.014 2.855s-.211.668-.809.563A11.665 11.665 0 0 1 4.2 15.85 11.158 11.158 0 0 1 15.6 4.493 11.408 11.408 0 0 1 27.281 15.85 11.558 11.558 0 0 1 19.5 26.979zm-6.9-4.3c-.134.028-.26-.028-.274-.12s.077-.2.211-.225.26.042.274.134-.07.182-.211.215zm-.668-.063c0 .091-.105.169-.246.169s-.26-.063-.26-.169.105-.169.246-.169.26.067.26.173zm-.963-.077c-.028.091-.169.134-.288.091s-.225-.134-.2-.225.169-.134.288-.105c.143.05.231.15.2.242zm-.865-.38c-.063.077-.2.063-.3-.042s-.134-.225-.063-.288.2-.063.3.042.126.235.059.291zm-.64-.64c-.063.042-.183 0-.26-.105s-.077-.225 0-.274.2-.014.26.091a.206.206 0 0 1 0 .288zm-.457-.682c-.063.063-.169.028-.246-.042-.077-.091-.091-.2-.028-.246s.169-.028.246.042c.077.095.091.2.028.25zm-.471-.52a.132.132 0 0 1-.2.028c-.091-.042-.134-.12-.105-.183a.165.165 0 0 1 .2-.028c.091.053.133.13.105.186z"></path>
  </symbol>
  <symbol xmlns="http://www.w3.org/2000/svg" viewBox="0 0 37.08 34.432" id="Icon awesome-gitlab">
    <path d="M7.621.484a.726.726 0 0 0-1.369 0L2.161 13.142h9.559c-.007 0-4.1-12.658-4.1-12.658zM.068 19.519a1.445 1.445 0 0 0 .514 1.593l17.952 13.32-16.38-21.29zm11.645-6.377l6.829 21.29 6.829-21.29zm25.3 6.373l-2.086-6.373-16.386 21.29 17.952-13.324a1.449 1.449 0 0 0 .521-1.593zM30.83.484a.726.726 0 0 0-1.369 0l-4.1 12.658h9.559z"></path>
  </symbol>
  <symbol xmlns="http://www.w3.org/2000/svg" viewBox="0 0 29.146 34.004" id="Icon awesome-html5">
    <path d="M0 0l2.649 30.042 11.886 3.962L26.5 30.042 29.146 0zm23.393 9.708H9.442l.311 3.75h13.329l-1.033 11.263-7.43 2.049v.023h-.083l-7.492-2.072-.455-5.753h3.62l.266 2.892 4.061 1.1 4.076-1.1.455-4.721H6.4L5.427 6.087h18.3l-.334 3.62z"></path>
  </symbol>
  <symbol xmlns="http://www.w3.org/2000/svg" viewBox="0 0 31.416 35.434" id="Icon awesome-node-js">
    <path d="M15.701 35.434a2.754 2.754 0 0 1-1.364-.366l-4.338-2.566c-.647-.366-.33-.492-.12-.562a8.546 8.546 0 0 0 1.962-.893.317.317 0 0 1 .323.028l3.333 1.976a.407.407 0 0 0 .4 0l12.987-7.5a.416.416 0 0 0 .2-.352V10.215a.419.419 0 0 0-.2-.359l-12.986-7.49a.407.407 0 0 0-.4 0l-12.973 7.5a.41.41 0 0 0-.2.359v14.978a.388.388 0 0 0 .2.345l3.558 2.053c1.934.963 3.115-.169 3.115-1.315V11.492a.372.372 0 0 1 .38-.373h1.645a.377.377 0 0 1 .38.373v14.8c0 2.573-1.406 4.05-3.846 4.05a5.522 5.522 0 0 1-2.988-.816l-3.4-1.962a2.734 2.734 0 0 1-1.364-2.37V10.215a2.743 2.743 0 0 1 1.364-2.37L14.337.348a2.847 2.847 0 0 1 2.728 0L30.051 7.85a2.734 2.734 0 0 1 1.364 2.37v14.983a2.751 2.751 0 0 1-1.364 2.37l-12.987 7.5a2.735 2.735 0 0 1-1.364.366zm10.484-14.773c0-2.805-1.9-3.551-5.885-4.078-4.036-.534-4.444-.809-4.444-1.751 0-.78.345-1.821 3.333-1.821 2.665 0 3.649.577 4.057 2.377a.376.376 0 0 0 .366.3H25.3a.367.367 0 0 0 .274-.12.391.391 0 0 0 .1-.288c-.26-3.1-2.32-4.542-6.483-4.542-3.705 0-5.913 1.561-5.913 4.184 0 2.841 2.2 3.628 5.752 3.98 4.254.415 4.584 1.041 4.584 1.877 0 1.448-1.167 2.067-3.9 2.067-3.438 0-4.191-.865-4.444-2.573a.372.372 0 0 0-.373-.316h-1.68a.371.371 0 0 0-.373.373c0 2.187 1.188 4.8 6.877 4.8 4.106-.007 6.469-1.631 6.469-4.458z"></path>
  </symbol>
  <symbol xmlns="http://www.w3.org/2000/svg" viewBox="0 0 36 31.502" id="Icon awesome-php">
    <path d="M29.4 10.208q-.57-.19-1.139-.359c.063-.26.12-.52.176-.78.865-4.191.3-7.559-1.624-8.67-1.849-1.062-4.866.042-7.917 2.7-.3.26-.6.534-.879.809-.19-.183-.387-.366-.584-.541C14.233.526 11.028-.669 9.108.449 7.27 1.518 6.722 4.689 7.5 8.654c.077.394.162.78.26 1.174-.45.127-.893.267-1.308.415C2.693 11.549 0 13.597 0 15.721c0 2.194 2.869 4.395 6.771 5.73.316.105.633.211.956.3-.105.422-.2.837-.281 1.266-.738 3.9-.162 7 1.68 8.058 1.9 1.1 5.091-.028 8.2-2.749.246-.218.492-.443.738-.682.309.3.633.591.956.872 3.009 2.589 5.98 3.633 7.818 2.575 1.9-1.1 2.517-4.423 1.716-8.473q-.095-.464-.211-.949c.225-.063.443-.134.661-.2 4.057-1.343 7-3.516 7-5.745 0-2.13-2.77-4.2-6.6-5.512zm-9.509-5.969c2.616-2.278 5.055-3.171 6.166-2.531 1.188.682 1.645 3.438.9 7.059-.049.239-.1.471-.162.7a35.995 35.995 0 0 0-4.732-.745 35.525 35.525 0 0 0-3-3.734c.274-.26.541-.506.823-.752zM11.756 19.37a48.63 48.63 0 0 0 1.111 1.821 31.839 31.839 0 0 1-3.267-.527 32.846 32.846 0 0 1 1.146-3.129c.323.619.654 1.23 1.005 1.835zm-2.13-8.459a34.696 34.696 0 0 1 3.206-.548 47.6 47.6 0 0 0-2.083 3.614 33.384 33.384 0 0 1-1.125-3.066zm1.927 4.845c.464-.97.97-1.92 1.5-2.855s1.111-1.842 1.716-2.735a43.566 43.566 0 0 1 6.454 0q.9 1.329 1.709 2.721t1.526 2.841q-.707 1.455-1.519 2.869c-.534.935-1.1 1.842-1.7 2.742-1.048.077-2.138.112-3.241.112s-2.173-.035-3.206-.1q-.918-1.339-1.73-2.742a44.216 44.216 0 0 1-1.512-2.855zm12.7 3.6c.359-.619.7-1.245 1.027-1.877a32.64 32.64 0 0 1 1.188 3.115 30.884 30.884 0 0 1-3.3.563c.373-.592.732-1.196 1.083-1.801zm1.013-5.379c-.33-.619-.668-1.238-1.02-1.842s-.7-1.188-1.076-1.772a32.357 32.357 0 0 1 3.227.563 31.117 31.117 0 0 1-1.132 3.052zm-7.249-7.91A30.876 30.876 0 0 1 20.1 8.584a46.335 46.335 0 0 0-4.184 0 34.13 34.13 0 0 1 2.098-2.517zm-8.159-4.31c1.181-.689 3.8.3 6.567 2.742.176.155.352.323.534.492a35.723 35.723 0 0 0-3.016 3.734 37.064 37.064 0 0 0-4.725.731 27.389 27.389 0 0 1-.246-1.09c-.661-3.4-.225-5.97.886-6.609zM8.135 20.291a16.43 16.43 0 0 1-.872-.274 14.341 14.341 0 0 1-4.43-2.194 3.155 3.155 0 0 1-1.322-2.1c0-1.287 2.222-2.932 5.428-4.05.4-.141.809-.267 1.216-.387a37.388 37.388 0 0 0 1.723 4.472 38.434 38.434 0 0 0-1.744 4.535zm8.2 6.891a12.869 12.869 0 0 1-3.966 2.482 3.112 3.112 0 0 1-2.482.091c-1.118-.647-1.582-3.129-.949-6.469.077-.394.162-.788.26-1.174a35.175 35.175 0 0 0 4.774.689 37.106 37.106 0 0 0 3.037 3.755c-.225.218-.45.429-.675.626zm1.723-1.709a33.199 33.199 0 0 1-2.13-2.552c.675.028 1.371.042 2.074.042.724 0 1.434-.014 2.138-.049a30.322 30.322 0 0 1-2.081 2.559zm9.19 2.109a3.125 3.125 0 0 1-1.16 2.2c-1.118.647-3.5-.2-6.075-2.4-.3-.253-.591-.527-.893-.809a34.783 34.783 0 0 0 2.967-3.769 34.662 34.662 0 0 0 4.8-.738c.07.288.134.577.19.858a12.817 12.817 0 0 1 .176 4.662zm1.28-7.559c-.2.063-.394.127-.6.183a35.719 35.719 0 0 0-1.793-4.486 35.54 35.54 0 0 0 1.723-4.423c.366.105.717.218 1.055.33 3.277 1.125 5.576 2.8 5.576 4.078 0 1.378-2.454 3.157-5.962 4.317zM18 18.969a3.22 3.22 0 1 0-3.22-3.22 3.22 3.22 0 0 0 3.22 3.22z"></path>
  </symbol>
  <symbol xmlns="http://www.w3.org/2000/svg" viewBox="0 0 54.214 28.513" id="Icon awesome-react">
    <path d="M27.107 1.424c14.519 0 25.684 6.116 25.684 12.833S41.617 27.09 27.107 27.09 1.423 20.974 1.423 14.257 12.6 1.424 27.107 1.424m0-1.423C12.139 0 0 6.379 0 14.257s12.139 14.256 27.107 14.256 27.107-6.379 27.107-14.256S42.075 0 27.107 0zm-8.624 13.112c-.669 3.431-3.033 3.075-5.938 3.075l1.161-5.98c3.219 0 5.404-.348 4.777 2.905zM8.251 22.245h3.109l.737-3.795c3.482 0 5.642.254 7.641-1.618 2.211-2.033 2.787-5.65 1.211-7.463a4.957 4.957 0 0 0-3.939-1.415h-5.989zm15.73-18.094h3.092l-.737 3.795c2.668 0 5.142-.195 6.336.906 1.254 1.152.652 2.626-.7 9.581h-3.137c1.3-6.726 1.55-7.285 1.076-7.793-.457-.491-1.5-.39-4.015-.39L24.3 18.434h-3.089l2.77-14.282zm18.8 8.962c-.678 3.482-3.109 3.075-5.938 3.075L38 10.208c3.236 0 5.4-.348 4.778 2.905zm-10.236 9.132h3.117l.737-3.795c3.659 0 5.684.212 7.641-1.618 2.211-2.033 2.787-5.65 1.211-7.463a4.957 4.957 0 0 0-3.939-1.415h-5.989z"></path>
  </symbol>
  <symbol xmlns="http://www.w3.org/2000/svg" viewBox="0 0 24 24" id="Icon awesome-sass">
    <path d="M21.6 0H2.4A2.4 2.4 0 0 0 .012 2.4L0 24l4.8-4.8h16.8a2.407 2.407 0 0 0 2.4-2.4V2.4A2.407 2.407 0 0 0 21.6 0zm-2.4 14.4H4.8V12h14.4zm0-3.6H4.8V8.4h14.4zm0-3.6H4.8V4.8h14.4z"></path>
  </symbol>
</svg>