<svg width="0" height="0" class="hidden">
  <symbol xmlns="http://www.w3.org/2000/svg" viewBox="0 0 37.08 34.432" id="Icon awesome-gitlab">
    <path d="M7.621.484a.726.726 0 0 0-1.369 0L2.161 13.142h9.559c-.007 0-4.1-12.658-4.1-12.658zM.068 19.519a1.445 1.445 0 0 0 .514 1.593l17.952 13.32-16.38-21.29zm11.645-6.377l6.829 21.29 6.829-21.29zm25.3 6.373l-2.086-6.373-16.386 21.29 17.952-13.324a1.449 1.449 0 0 0 .521-1.593zM30.83.484a.726.726 0 0 0-1.369 0l-4.1 12.658h9.559z"></path>
  </symbol>
  <symbol xmlns="http://www.w3.org/2000/svg" viewBox="0 0 29.146 34.004" id="Icon awesome-html5">
    <path d="M0 0l2.649 30.042 11.886 3.962L26.5 30.042 29.146 0zm23.393 9.708H9.442l.311 3.75h13.329l-1.033 11.263-7.43 2.049v.023h-.083l-7.492-2.072-.455-5.753h3.62l.266 2.892 4.061 1.1 4.076-1.1.455-4.721H6.4L5.427 6.087h18.3l-.334 3.62z"></path>
  </symbol>
  <symbol xmlns="http://www.w3.org/2000/svg" viewBox="0 0 54.214 28.513" id="Icon awesome-php">
    <path d="M27.107 1.424c14.519 0 25.684 6.116 25.684 12.833S41.617 27.09 27.107 27.09 1.423 20.974 1.423 14.257 12.6 1.424 27.107 1.424m0-1.423C12.139 0 0 6.379 0 14.257s12.139 14.256 27.107 14.256 27.107-6.379 27.107-14.256S42.075 0 27.107 0zm-8.624 13.112c-.669 3.431-3.033 3.075-5.938 3.075l1.161-5.98c3.219 0 5.404-.348 4.777 2.905zM8.251 22.245h3.109l.737-3.795c3.482 0 5.642.254 7.641-1.618 2.211-2.033 2.787-5.65 1.211-7.463a4.957 4.957 0 0 0-3.939-1.415h-5.989zm15.73-18.094h3.092l-.737 3.795c2.668 0 5.142-.195 6.336.906 1.254 1.152.652 2.626-.7 9.581h-3.137c1.3-6.726 1.55-7.285 1.076-7.793-.457-.491-1.5-.39-4.015-.39L24.3 18.434h-3.089l2.77-14.282zm18.8 8.962c-.678 3.482-3.109 3.075-5.938 3.075L38 10.208c3.236 0 5.4-.348 4.778 2.905zm-10.236 9.132h3.117l.737-3.795c3.659 0 5.684.212 7.641-1.618 2.211-2.033 2.787-5.65 1.211-7.463a4.957 4.957 0 0 0-3.939-1.415h-5.989z"></path>
  </symbol>
  <symbol xmlns="http://www.w3.org/2000/svg" viewBox="0 0 43.666 32.753" id="Icon awesome-sass">
    <path d="M20.594 24.762c-.02.041-.041.074 0 0zm17-5.936a8.949 8.949 0 0 0-3.957.921 8.4 8.4 0 0 1-.887-2.054 5.482 5.482 0 0 1-.075-1.726 14.536 14.536 0 0 1 .519-1.856c-.007-.075-.1-.45-.976-.457s-1.638.171-1.726.4a8.38 8.38 0 0 0-.362 1.3 31.615 31.615 0 0 1-2.667 5.138 5.3 5.3 0 0 1-.607-1.5 5.482 5.482 0 0 1-.075-1.726 14.537 14.537 0 0 1 .519-1.856c-.007-.075-.1-.45-.975-.457s-1.638.171-1.726.4-.184.778-.362 1.3-2.312 5.274-2.871 6.509a33.207 33.207 0 0 1-.71 1.474c-.027.055-.048.089-.061.116.02-.034.034-.068.034-.055-.15.293-.239.457-.239.457v.021c-.116.218-.246.416-.307.416a2.83 2.83 0 0 1 .02-1.358c.321-1.651 1.078-4.217 1.071-4.305-.007-.048.143-.491-.5-.73a.8.8 0 0 0-.9.15c-.055 0-.1.136-.1.136s.689-2.893-1.323-2.893c-1.255 0-3 1.378-3.86 2.627-.539.293-1.706.928-2.934 1.6l-1.412.778c-.034-.034-.061-.068-.1-.1-2.433-2.609-6.945-4.451-6.751-7.951.068-1.276.512-4.626 8.67-8.692C18.651 1.523 24 2.437 24.917 4.475c1.324 2.9-2.858 8.3-9.8 9.075-2.647.293-4.038-.73-4.386-1.112-.362-.4-.416-.423-.553-.348-.225.123-.082.478 0 .689a4.111 4.111 0 0 0 2.51 1.972 13.294 13.294 0 0 0 8.131-.805c4.215-1.624 7.5-6.147 6.534-9.934-.98-3.848-7.361-5.11-13.394-2.968a30.35 30.35 0 0 0-10.279 5.9C.356 10.045-.175 12.753.043 13.886c.777 4.019 6.316 6.639 8.533 8.577-.109.061-.212.116-.307.171-1.111.553-5.334 2.763-6.391 5.1-1.194 2.647.2 4.544 1.111 4.8a6.812 6.812 0 0 0 7.339-2.975 7.387 7.387 0 0 0 .655-6.789c-.007-.02-.02-.034-.027-.055.287-.171.58-.341.873-.512a63.473 63.473 0 0 1 1.6-.907 10.6 10.6 0 0 0-.573 2.907 6.04 6.04 0 0 0 1.3 4.21 1.432 1.432 0 0 0 1.05.341c.942 0 1.365-.778 1.835-1.706.58-1.133 1.092-2.449 1.092-2.449s-.641 3.562 1.112 3.562c.641 0 1.282-.826 1.569-1.249v.007s.014-.027.048-.082c.068-.1.1-.164.1-.164v-.02c.259-.443.826-1.46 1.678-3.139 1.105-2.17 2.162-4.878 2.162-4.878a13.731 13.731 0 0 0 .423 1.76 16.481 16.481 0 0 0 .914 2.047 30.2 30.2 0 0 1-.416.559.021.021 0 0 0 .007.014c-.2.273-.437.566-.675.853a24.082 24.082 0 0 0-2.047 2.565.7.7 0 0 0 .191.935 1.658 1.658 0 0 0 1.071.171 4.731 4.731 0 0 0 1.6-.368 5.608 5.608 0 0 0 1.378-.723 3.08 3.08 0 0 0 1.324-2.716 5.651 5.651 0 0 0-.5-1.924c.075-.109.157-.225.232-.341a36.271 36.271 0 0 0 2.394-4.136 13.73 13.73 0 0 0 .423 1.76 12.035 12.035 0 0 0 .777 1.753 7.5 7.5 0 0 0-2.326 3.009c-.5 1.453-.109 2.108.635 2.258a2.289 2.289 0 0 0 1.179-.237 5.422 5.422 0 0 0 1.473-.757 3.3 3.3 0 0 0 1.623-2.7 5.076 5.076 0 0 0-.368-1.6 8.328 8.328 0 0 1 4.236-.491c3.8.443 4.543 2.818 4.4 3.807a2.523 2.523 0 0 1-1.208 1.706c-.266.164-.348.225-.328.348.034.177.157.171.382.13a2.964 2.964 0 0 0 2.067-2.64c.109-2.32-2.121-4.872-6.072-4.851zM8.31 28.699c-1.255 1.371-3.015 1.89-3.772 1.453-.812-.472-.491-2.49 1.057-3.952a20.216 20.216 0 0 1 2.96-2.211c.184-.109.45-.273.778-.471a1.43 1.43 0 0 1 .082-.048c.061-.041.13-.075.2-.116a5.446 5.446 0 0 1-1.3 5.342zm9.167-6.236c-.437 1.071-1.357 3.8-1.917 3.657-.478-.123-.771-2.2-.1-4.251a9.41 9.41 0 0 1 1.494-2.736c.688-.771 1.446-1.017 1.623-.71.244.403-.827 3.371-1.1 4.04zm7.573 3.612c-.184.1-.355.157-.437.109-.061-.034.075-.164.075-.164s.948-1.017 1.324-1.481c.218-.273.471-.594.743-.948 0 .034.007.068.007.109a3.164 3.164 0 0 1-1.714 2.375zm5.839-1.33c-.136-.1-.116-.416.341-1.412a5.3 5.3 0 0 1 1.3-1.672 2.469 2.469 0 0 1 .13.737 2.406 2.406 0 0 1-1.766 2.347z"></path>
  </symbol>
  <symbol xmlns="http://www.w3.org/2000/svg" viewBox="0 0 35.554 24" id="Icon email">
    <path d="M0 21.874V2.126q0-.034.1-.651l11.628 9.942L.137 22.56A2.906 2.906 0 0 1 0 21.874zM1.543.103a1.478 1.478 0 0 1 .583-.1h31.302a1.941 1.941 0 0 1 .617.1L22.388 10.08l-1.543 1.234-3.051 2.5-3.051-2.5L13.2 10.08zm.034 23.794l11.692-11.211 4.526 3.669 4.526-3.669 11.69 11.211a1.646 1.646 0 0 1-.583.1h-31.3a1.553 1.553 0 0 1-.549-.1zm22.286-12.48l11.588-9.943a2.046 2.046 0 0 1 .1.651v19.749a2.628 2.628 0 0 1-.1.686z"></path>
  </symbol>
  <symbol xmlns="http://www.w3.org/2000/svg" viewBox="0 0 24 24" id="Icon message">
    <path d="M21.6 0H2.4A2.4 2.4 0 0 0 .012 2.4L0 24l4.8-4.8h16.8a2.407 2.407 0 0 0 2.4-2.4V2.4A2.407 2.407 0 0 0 21.6 0zm-2.4 14.4H4.8V12h14.4zm0-3.6H4.8V8.4h14.4zm0-3.6H4.8V4.8h14.4z"></path>
  </symbol>
  <symbol xmlns="http://www.w3.org/2000/svg" viewBox="0 0 24 24" id="Icon person">
    <path d="M12 2.85A3.15 3.15 0 1 1 8.85 6 3.15 3.15 0 0 1 12 2.85m0 13.5c4.455 0 9.15 2.19 9.15 3.15v1.65H2.85V19.5c0-.96 4.695-3.15 9.15-3.15M12 0a6 6 0 1 0 6 6 6 6 0 0 0-6-6zm0 13.5c-4.005 0-12 2.01-12 6V24h24v-4.5c0-3.99-7.995-6-12-6z"></path>
  </symbol>
  <symbol xmlns="http://www.w3.org/2000/svg" viewBox="0 0 26.954 27.003" id="Icon phone">
    <path d="M25.453 19.468v3.613a2.409 2.409 0 0 1-2.625 2.409 23.834 23.834 0 0 1-10.393-3.7 23.484 23.484 0 0 1-7.226-7.226 23.834 23.834 0 0 1-3.7-10.441A2.409 2.409 0 0 1 3.907 1.5H7.52a2.409 2.409 0 0 1 2.413 2.071 15.463 15.463 0 0 0 .843 3.384 2.409 2.409 0 0 1-.543 2.545l-1.529 1.529a19.269 19.269 0 0 0 7.226 7.226l1.529-1.529A2.409 2.409 0 0 1 20 16.184a15.463 15.463 0 0 0 3.384.843 2.409 2.409 0 0 1 2.071 2.445z"
      fill="none" stroke="#c2c7d6" stroke-linecap="round" stroke-linejoin="round" stroke-width="3"></path>
  </symbol>
  <symbol xmlns="http://www.w3.org/2000/svg" viewBox="0 0 36 36" id="Icon simple-javascript">
    <path d="M0 0h36v36H0zm33.051 27.414c-.263-1.642-1.332-3.023-4.5-4.309-1.1-.517-2.331-.878-2.7-1.71a1.771 1.771 0 0 1-.069-1.058 1.719 1.719 0 0 1 2.273-.99 2.44 2.44 0 0 1 1.464 1.35c1.551-1.014 1.551-1.014 2.632-1.687a6.191 6.191 0 0 0-.879-1.17 5.038 5.038 0 0 0-4.251-1.551l-1.058.133a4.835 4.835 0 0 0-2.563 1.507 4.706 4.706 0 0 0 .854 6.706c2.048 1.53 5.042 1.866 5.424 3.307.36 1.755-1.305 2.318-2.949 2.115a3.949 3.949 0 0 1-2.632-2l-2.747 1.574a6.066 6.066 0 0 0 1.215 1.663c2.61 2.634 9.135 2.5 10.306-1.506a5.077 5.077 0 0 0 .111-2.475l.069.1zM19.576 16.546H16.2c0 2.907-.014 5.8-.014 8.708 0 1.848.094 3.545-.207 4.066-.495 1.034-1.77.9-2.349.72a2.894 2.894 0 0 1-1.245-1.282 1.287 1.287 0 0 0-.191-.294l-2.732 1.687a5.306 5.306 0 0 0 1.986 2.275 6.6 6.6 0 0 0 4.81.607 4.213 4.213 0 0 0 2.716-2.117c.765-1.4.6-3.1.6-5.019.018-3.081 0-6.163 0-9.269l.006-.084z"></path>
  </symbol>
  <symbol xmlns="http://www.w3.org/2000/svg" viewBox="0 0 35.749 34.432" id="Icon simple-jquery">
    <path d="M2.272 8.085c-3.166 4.549-2.774 10.465-.353 15.3.055.118.116.23.176.342a2.4 2.4 0 0 0 .115.222 1.259 1.259 0 0 0 .07.124c.039.078.081.152.121.227l.234.4c.043.073.085.145.134.218.082.14.179.279.264.419.039.058.075.116.118.174q.217.341.462.662c.116.16.233.315.358.47.04.057.085.113.127.17l.33.4c.04.046.081.1.124.148a16.791 16.791 0 0 0 .463.53 4.668 4.668 0 0 0 .632.656c.119.122.239.245.365.364l.151.145c.166.155.331.31.506.459h.007l.085.075c.152.133.306.265.462.388l.186.157c.127.1.258.2.388.3l.2.155.428.309c.052.037.1.075.158.109l.043.034.419.276.179.119c.219.14.437.273.653.4.063.031.125.066.183.1.161.092.328.186.491.273.089.051.182.094.274.14.112.063.228.124.347.186a.483.483 0 0 1 .084.034 14.004 14.004 0 0 0 .702.33 1.216 1.216 0 0 1 .113.051c.215.094.43.183.652.271.051.015.1.04.157.06.2.076.409.154.613.227l.075.027c.228.078.453.152.685.224.054.015.109.034.166.049a7.252 7.252 0 0 0 .705.2c15.3 2.789 19.749-9.2 19.749-9.2-3.736 4.865-10.365 6.147-16.644 4.72-.233-.054-.465-.128-.7-.2q-.426-.126-.846-.27l-.092-.036c-.2-.069-.4-.145-.6-.221q-.081-.034-.164-.061a18.863 18.863 0 0 1-.644-.273c-.046-.015-.085-.036-.131-.054q-.27-.124-.538-.254c-.055-.024-.1-.049-.158-.078-.14-.066-.28-.14-.418-.212q-.141-.068-.279-.143c-.169-.089-.337-.186-.506-.279-.051-.036-.109-.066-.167-.1q-.33-.2-.653-.4-.09-.056-.176-.118-.237-.146-.465-.307c-.052-.034-.1-.072-.154-.109q-.222-.154-.438-.316c-.063-.051-.13-.1-.2-.149-.131-.1-.264-.2-.4-.31l-.176-.14q-.253-.2-.5-.419a.385.385 0 0 0-.055-.045l-.518-.471-.149-.14c-.122-.124-.248-.243-.373-.365l-.128-.138q-.236-.235-.461-.482l-.022-.024a26.62 26.62 0 0 1-.467-.528c-.04-.046-.078-.1-.119-.145l-.337-.421q-.258-.331-.507-.668c-3.482-4.755-4.743-11.317-1.955-16.7m7.363-.7a10.982 10.982 0 0 0-.379 11.184 13.571 13.571 0 0 0 1.01 1.688 7.909 7.909 0 0 0 1.181 1.471c.16.182.333.358.513.535l.134.134q.255.246.522.485l.022.019q.3.263.617.51c.051.034.094.075.143.109.209.161.419.316.637.47l.022.013c.092.067.191.128.3.194.042.027.089.063.134.089.158.1.313.2.473.294.025.01.048.024.072.034.134.082.28.161.421.234.049.03.1.052.148.081.1.049.2.1.294.152l.048.021c.2.1.407.191.608.283.051.019.094.036.137.057.166.072.334.14.5.2.075.025.145.055.215.078.152.057.312.109.462.161l.209.067a5.047 5.047 0 0 0 .668.192c11.812 1.958 14.547-7.139 14.547-7.139-2.47 3.552-7.232 5.238-12.31 3.919q-.337-.087-.668-.194c-.072-.019-.134-.042-.2-.063-.155-.054-.315-.106-.465-.163l-.215-.081c-.167-.067-.337-.13-.5-.2-.051-.022-.1-.037-.136-.06-.209-.094-.419-.186-.622-.286l-.307-.16-.177-.089c-.137-.072-.264-.146-.4-.224a.925.925 0 0 1-.092-.051c-.158-.1-.322-.194-.473-.3-.051-.028-.1-.063-.145-.092l-.31-.2c-.215-.149-.425-.31-.637-.465-.048-.043-.094-.079-.14-.118a14.18 14.18 0 0 1-4.829-6.872 10.679 10.679 0 0 1 .834-8.564m6.394-.219a6.885 6.885 0 0 0-.552 6.644 9.376 9.376 0 0 0 5.38 5.021c.1.037.191.069.291.1l.131.04c.137.043.276.094.418.125 6.526 1.259 8.292-3.351 8.768-4.028-1.554 2.231-4.159 2.767-7.355 1.99a7.224 7.224 0 0 1-.77-.239 9.461 9.461 0 0 1-.92-.379 9.725 9.725 0 0 1-1.611-.984C21.268 7.513 19.494 3.373 21.362 0"></path>
  </symbol>
  <symbol xmlns="http://www.w3.org/2000/svg" viewBox="0 0 46.408 31.513" id="Icon simple-mysql">
    <path d="M31.722 3.191a2.134 2.134 0 0 0-.53.064v.025h.027a4.362 4.362 0 0 0 .414.528c.1.207.193.414.3.619l.027-.029a.719.719 0 0 0 .271-.644c-.077-.091-.089-.182-.155-.271-.077-.13-.244-.193-.348-.3zM11.157 28.703H9.365a98.417 98.417 0 0 0-.522-8.527h-.016L6.1 28.703H4.737L2.03 20.176h-.019q-.3 3.837-.377 8.527H0q.16-5.7.793-10.693h2.224L5.6 25.869h.015l2.6-7.858h2.117q.7 5.845.828 10.693zm7.768-7.889q-1.1 5.932-2.885 8.624-1.4 2.077-3.061 2.075a3.018 3.018 0 0 1-1.094-.267v-.955a4.962 4.962 0 0 0 .746.05 1.8 1.8 0 0 0 1.251-.429 1.558 1.558 0 0 0 .57-1.17 7.756 7.756 0 0 0-.445-1.825l-1.961-6.1h1.76l1.406 4.563a6.127 6.127 0 0 1 .4 2.172 29.5 29.5 0 0 0 1.615-6.735h1.7zm23.832 7.889h-5.085V18.01h1.711v9.378h3.374zm-6.419.258l-1.965-.967a4.153 4.153 0 0 0 .493-.483 6.55 6.55 0 0 0 1.253-4.35q0-5.308-4.167-5.31a3.965 3.965 0 0 0-3.191 1.348 6.564 6.564 0 0 0-1.249 4.341 6.339 6.339 0 0 0 1.11 4.138 3.8 3.8 0 0 0 3.061 1.183 4.916 4.916 0 0 0 1.4-.189l2.562 1.493.7-1.2zm-6.366-2.4a6.571 6.571 0 0 1-.652-3.357q0-4.04 2.456-4.041a2.066 2.066 0 0 1 1.889.967 6.541 6.541 0 0 1 .65 3.332q0 4.072-2.456 4.076a2.067 2.067 0 0 1-1.891-.967zm-3.206-.822a2.833 2.833 0 0 1-1 2.235 3.92 3.92 0 0 1-2.676.87 5.363 5.363 0 0 1-3.042-1l.458-.92a5.188 5.188 0 0 0 2.3.634 2.417 2.417 0 0 0 1.514-.425 1.457 1.457 0 0 0 .58-1.189c0-.638-.445-1.18-1.253-1.634-.75-.412-2.249-1.27-2.249-1.27a2.559 2.559 0 0 1-1.222-2.276 2.654 2.654 0 0 1 .909-2.1 3.426 3.426 0 0 1 2.359-.8 4.854 4.854 0 0 1 2.707.793l-.412.92a5.271 5.271 0 0 0-2.057-.445 1.821 1.821 0 0 0-1.265.4 1.324 1.324 0 0 0-.48 1.013c0 .634.452 1.18 1.288 1.644.76.416 2.3 1.3 2.3 1.3a2.517 2.517 0 0 1 1.253 2.259zm18.142-11.314a5.929 5.929 0 0 0-2.508.364c-.193.077-.5.077-.53.323.106.1.122.271.213.414a2.967 2.967 0 0 0 .669.787c.271.213.541.418.826.6.5.309 1.073.493 1.566.8.28.182.567.412.851.605.141.1.232.271.414.333v-.039c-.089-.116-.116-.284-.2-.414-.13-.13-.259-.246-.387-.373a6.232 6.232 0 0 0-1.344-1.305c-.414-.282-1.319-.677-1.489-1.151l-.025-.027a5.2 5.2 0 0 0 .889-.2c.439-.116.841-.091 1.3-.2.2-.052.412-.116.619-.182v-.116c-.232-.232-.406-.547-.646-.764a17.147 17.147 0 0 0-2.135-1.591c-.406-.259-.92-.425-1.348-.646-.155-.077-.414-.116-.5-.246a4.986 4.986 0 0 1-.532-.994c-.371-.712-.735-1.5-1.058-2.249a13.39 13.39 0 0 0-.657-1.475 13.028 13.028 0 0 0-5-4.834 6.3 6.3 0 0 0-1.655-.53c-.323-.015-.646-.039-.967-.052a4.692 4.692 0 0 1-.6-.454c-.735-.464-2.638-1.47-3.179-.139-.348.839.516 1.667.816 2.092a5.961 5.961 0 0 1 .657.967c.091.224.116.454.207.688a15.474 15.474 0 0 0 .671 1.735 5.93 5.93 0 0 0 .478.8c.1.141.282.207.323.439a3.764 3.764 0 0 0-.3.967 5.728 5.728 0 0 0 .375 4.351c.207.321.7 1.033 1.359.76.58-.232.452-.967.619-1.615.039-.155.014-.257.093-.362v.029c.182.364.364.71.53 1.073a7.276 7.276 0 0 0 1.676 1.731c.309.232.555.634.942.777v-.039H35.9a1.726 1.726 0 0 0-.3-.257 6.661 6.661 0 0 1-.677-.773 16.939 16.939 0 0 1-1.444-2.355c-.213-.406-.391-.843-.561-1.243-.077-.155-.077-.387-.207-.464a4.772 4.772 0 0 0-.619.876 7.388 7.388 0 0 0-.364 1.953c-.052.014-.027 0-.052.027-.414-.1-.555-.53-.71-.889a5.612 5.612 0 0 1-.116-3.452c.091-.271.478-1.125.323-1.385-.081-.246-.336-.387-.478-.586a4.791 4.791 0 0 1-.464-.826c-.309-.723-.464-1.524-.8-2.247a6.7 6.7 0 0 0-.646-.992 6.506 6.506 0 0 1-.712-1.006c-.064-.141-.155-.375-.052-.53a.22.22 0 0 1 .182-.174c.17-.139.648.043.816.12a6.613 6.613 0 0 1 1.28.646c.182.128.377.373.609.437h.271c.414.091.88.027 1.267.141a8.274 8.274 0 0 1 1.86.889 11.511 11.511 0 0 1 4.032 4.42c.155.3.222.57.364.88.271.638.605 1.282.88 1.9a8.419 8.419 0 0 0 .92 1.735c.193.271.971.412 1.319.553a9.4 9.4 0 0 1 .889.364c.445.271.878.58 1.3.878.213.147.857.47.9.731z"></path>
  </symbol>
  <symbol xmlns="http://www.w3.org/2000/svg" viewBox="0 0 34.004 34.004" id="Icon awesome-bootstrap">
    <path d="M22.186 21.25a3.02 3.02 0 0 1-3.334 3.145h-6.14v-6.2h6.14c3.23 0 3.334 2.421 3.334 3.056zm-3.806-5.551a2.727 2.727 0 0 0 2.92-2.759c0-1.178-.266-2.723-2.918-2.723h-5.669v5.479zM34 5.668v22.668a5.684 5.684 0 0 1-5.668 5.668H5.668A5.684 5.684 0 0 1 0 28.336V5.668A5.684 5.684 0 0 1 5.668 0h22.668A5.684 5.684 0 0 1 34 5.668zm-8.345 16.03c0-1.637-.5-4.424-3.723-5.112v-.056a4.349 4.349 0 0 0 2.834-4.223c0-.531.152-4.917-5.89-4.917H9.24v19.835c9.733 0 10.616.128 12.417-.433a5.1 5.1 0 0 0 4-5.094z"></path>
  </symbol>
  <symbol xmlns="http://www.w3.org/2000/svg" viewBox="0 0 29.146 34.004" id="Icon awesome-css3-alt">
    <path d="M0 0l2.649 30.042 11.924 3.962L26.5 30.042 29.146 0zm23.765 6.072l-.364 3.59-8.751 3.742-.023.008h8.463l-.972 11.127-7.453 2.178-7.5-2.216-.486-5.609h3.712l.243 2.907 3.992 1.009 4.152-1.169.281-4.676-12.623-.037v-.008l-.015.008-.273-3.514 8.509-3.545.493-.2H5.822l-.44-3.59z"></path>
  </symbol>
  <symbol xmlns="http://www.w3.org/2000/svg" viewBox="0 0 40.5 36" id="Icon awesome-external-link-alt">
    <path d="M40.5 1.688v9a1.689 1.689 0 0 1-2.881 1.193l-2.51-2.512-17.123 17.123a1.687 1.687 0 0 1-2.386 0L14.008 24.9a1.687 1.687 0 0 1 0-2.386L31.131 5.391l-2.51-2.511A1.689 1.689 0 0 1 29.814 0h9A1.687 1.687 0 0 1 40.5 1.688zM28.619 19.04l-1.125 1.125A1.687 1.687 0 0 0 27 21.358V31.5H4.5V9h18.563a1.688 1.688 0 0 0 1.193-.494l1.125-1.125A1.688 1.688 0 0 0 24.188 4.5H3.375A3.375 3.375 0 0 0 0 7.875v24.75A3.375 3.375 0 0 0 3.375 36h24.75a3.375 3.375 0 0 0 3.375-3.375V20.233a1.687 1.687 0 0 0-2.881-1.193z"></path>
  </symbol>
  <symbol xmlns="http://www.w3.org/2000/svg" viewBox="0 0 31.5 31.5" id="Icon awesome-git-alt">
    <path d="M30.906 14.35L17.156.594a2.03 2.03 0 0 0-2.869 0L11.428 3.45l3.622 3.623a2.41 2.41 0 0 1 3.05 3.072l3.492 3.492a2.413 2.413 0 1 1-1.444 1.361l-3.258-3.256v8.568a2.412 2.412 0 1 1-1.984-.07v-8.649A2.412 2.412 0 0 1 13.6 8.427L10.024 4.85l-9.43 9.433a2.029 2.029 0 0 0 0 2.869l13.754 13.754a2.029 2.029 0 0 0 2.869 0l13.689-13.689a2.029 2.029 0 0 0 0-2.869z"></path>
  </symbol>
  <symbol xmlns="http://www.w3.org/2000/svg" viewBox="0 0 34.875 34.004" id="Icon awesome-github">
    <path d="M11.665 27.379c0 .141-.162.253-.366.253-.232.021-.394-.091-.394-.253 0-.141.162-.253.366-.253.211-.021.394.091.394.253zm-2.187-.316c-.049.141.091.3.3.345a.33.33 0 0 0 .436-.141c.042-.141-.091-.3-.3-.366a.361.361 0 0 0-.436.162zm3.108-.12c-.2.049-.345.183-.323.345.021.141.2.232.415.183s.345-.183.323-.323-.211-.226-.415-.205zM17.212 0A16.86 16.86 0 0 0 0 17.156a17.628 17.628 0 0 0 11.918 16.818c.9.162 1.216-.394 1.216-.851 0-.436-.021-2.841-.021-4.317 0 0-4.922 1.055-5.955-2.1 0 0-.8-2.046-1.955-2.573 0 0-1.61-1.1.113-1.083a3.711 3.711 0 0 1 2.714 1.819 3.717 3.717 0 0 0 5.126 1.47 3.908 3.908 0 0 1 1.125-2.37c-3.93-.436-7.9-1.005-7.9-7.77a5.329 5.329 0 0 1 1.659-4.141 6.643 6.643 0 0 1 .183-4.774c1.47-.457 4.852 1.9 4.852 1.9a16.611 16.611 0 0 1 8.831 0s3.382-2.363 4.852-1.9a6.64 6.64 0 0 1 .183 4.774 5.466 5.466 0 0 1 1.814 4.141c0 6.785-4.141 7.327-8.072 7.77a4.158 4.158 0 0 1 1.2 3.263c0 2.37-.021 5.3-.021 5.878 0 .457.323 1.013 1.216.851a17.466 17.466 0 0 0 11.8-16.8C34.875 7.403 26.965 0 17.212 0zM6.834 24.25c-.091.07-.07.232.049.366.113.112.274.162.366.07.091-.07.07-.232-.049-.366-.113-.112-.274-.161-.366-.07zm-.759-.57c-.049.091.021.2.162.274a.209.209 0 0 0 .3-.049c.049-.091-.021-.2-.162-.274-.138-.042-.251-.021-.3.05zm2.278 2.5c-.113.091-.07.3.091.436.162.162.366.183.457.07.091-.091.049-.3-.091-.436-.155-.158-.365-.179-.457-.066zm-.8-1.034c-.113.07-.113.253 0 .415s.3.232.394.162a.321.321 0 0 0 0-.436c-.1-.158-.283-.228-.395-.137z"></path>
  </symbol>
  <symbol xmlns="http://www.w3.org/2000/svg" viewBox="0 0 31.5 31.5" id="Icon awesome-github-square">
    <path d="M28.125 0H3.375A3.376 3.376 0 0 0 0 3.375v24.75A3.376 3.376 0 0 0 3.375 31.5h24.75a3.376 3.376 0 0 0 3.375-3.375V3.375A3.376 3.376 0 0 0 28.125 0zM19.5 26.979c-.591.105-.809-.26-.809-.562 0-.38.014-2.32.014-3.888a2.74 2.74 0 0 0-.795-2.159c2.6-.288 5.344-.647 5.344-5.14a3.61 3.61 0 0 0-1.2-2.742 4.4 4.4 0 0 0-.12-3.164c-.977-.3-3.213 1.259-3.213 1.259a11.061 11.061 0 0 0-5.85 0s-2.236-1.561-3.213-1.259a4.364 4.364 0 0 0-.12 3.164 3.531 3.531 0 0 0-1.1 2.742c0 4.472 2.623 4.852 5.224 5.14a2.548 2.548 0 0 0-.745 1.568 2.467 2.467 0 0 1-3.4-.977 2.45 2.45 0 0 0-1.793-1.2c-1.139-.014-.077.717-.077.717.759.352 1.294 1.7 1.294 1.7.682 2.088 3.945 1.385 3.945 1.385 0 .977.014 2.566.014 2.855s-.211.668-.809.563A11.665 11.665 0 0 1 4.2 15.85 11.158 11.158 0 0 1 15.6 4.493 11.408 11.408 0 0 1 27.281 15.85 11.558 11.558 0 0 1 19.5 26.979zm-6.9-4.3c-.134.028-.26-.028-.274-.12s.077-.2.211-.225.26.042.274.134-.07.182-.211.215zm-.668-.063c0 .091-.105.169-.246.169s-.26-.063-.26-.169.105-.169.246-.169.26.067.26.173zm-.963-.077c-.028.091-.169.134-.288.091s-.225-.134-.2-.225.169-.134.288-.105c.143.05.231.15.2.242zm-.865-.38c-.063.077-.2.063-.3-.042s-.134-.225-.063-.288.2-.063.3.042.126.235.059.291zm-.64-.64c-.063.042-.183 0-.26-.105s-.077-.225 0-.274.2-.014.26.091a.206.206 0 0 1 0 .288zm-.457-.682c-.063.063-.169.028-.246-.042-.077-.091-.091-.2-.028-.246s.169-.028.246.042c.077.095.091.2.028.25zm-.471-.52a.132.132 0 0 1-.2.028c-.091-.042-.134-.12-.105-.183a.165.165 0 0 1 .2-.028c.091.053.133.13.105.186z"></path>
  </symbol>
</svg>